<?xml version="1.0" encoding="utf-8"?>
<!-- Generator: Adobe Illustrator 18.0.0, SVG Export Plug-In . SVG Version: 6.00 Build 0)  -->
<!DOCTYPE svg PUBLIC "-//W3C//DTD SVG 1.1//EN" "http://www.w3.org/Graphics/SVG/1.1/DTD/svg11.dtd" [
	<!ENTITY ns_flows "http://ns.adobe.com/Flows/1.0/">
	<!ENTITY ns_extend "http://ns.adobe.com/Extensibility/1.0/">
	<!ENTITY ns_ai "http://ns.adobe.com/AdobeIllustrator/10.0/">
	<!ENTITY ns_graphs "http://ns.adobe.com/Graphs/1.0/">
]>
<svg version="1.1" xmlns:x="&ns_extend;" xmlns:i="&ns_ai;" xmlns:graph="&ns_graphs;"
	 xmlns="http://www.w3.org/2000/svg" xmlns:xlink="http://www.w3.org/1999/xlink" xmlns:a="http://ns.adobe.com/AdobeSVGViewerExtensions/3.0/"
	 x="0px" y="0px" width="2272px" height="1872px" viewBox="0 0 2272 1872" enable-background="new 0 0 2272 1872"
	 xml:space="preserve">
<g id="Layer_2">
</g>
<g id="Layer_1">
	<g>
		<g>
			<path fill="#191818" d="M599.8,983.3c-0.7,0-1.4-0.1-2.1-0.3l-149.6,0.2c-0.5,0.1-1,0.2-1.5,0.2c-0.5,0-1-0.1-1.5-0.2l-151.6,0.2
				c-0.1,0-0.3,0-0.4,0c-0.2,0-0.3,0-0.5-0.1c-0.3,0-0.5-0.1-0.7-0.1c-0.2,0-0.4-0.1-0.6-0.1c-0.3-0.1-0.5-0.2-0.8-0.3
				c-0.2-0.1-0.4-0.2-0.6-0.3c-0.3-0.1-0.5-0.3-0.7-0.4c-0.1-0.1-0.2-0.2-0.4-0.2c-0.1-0.1-0.3-0.2-0.4-0.3
				c-27.5-23.4-51.5-46.7-73.5-71.3c-1.2-1.4-1.9-3.2-1.9-5c0.2-54.4,1.7-125.6,1.8-126.3c0-0.4,0-0.8,0.1-1.2l16.5-92.3
				c8.8-49.1,37.4-92.7,78.5-119.8c8.9-5.9,12.8-7.3,15.7-7.5l-158-124.4c-2.8-2.2-3.6-5.9-2.1-9.1c1.2-2.6,3.9-4.3,6.8-4.3
				c0.5,0,1.1,0.1,1.6,0.2l158.2,34.3c-17.3-19.1-15.6-46.8-13.8-59.3c-3.9-1.4-7.7-2.9-11.3-4.4c-10.2-4.2-61.2-26.5-61.2-47.6
				c0-15.8,22-15.8,33.9-15.8c11.4,0,25.8,0.9,41,2c0-0.5,0-1,0-1.4c0-1.4,0.1-2.9,0.1-4.3c0-0.5,0-1.1,0.1-1.6l0-0.9
				c0.8-18.5,3-37,6.4-54.8c2.7-14.3,6.4-29.3,15-42.5c9.8-15.1,24.8-24.7,40.2-25.7c1-0.1,1.9-0.1,2.8-0.1c14.2,0,26.4,6.6,38.1,13
				c8.2,4.5,16.7,9.1,25.2,10.8c8.5-1.7,17-6.3,25.2-10.8c11.8-6.4,24-13,38.1-13c0.9,0,1.9,0,2.8,0.1c15.4,1,30.4,10.6,40.2,25.7
				c8.6,13.2,12.3,28.3,15,42.5c2.7,14.2,4.6,28.9,5.7,43.6c0,0.2,0,0.3,0.1,0.5c0.1,1.7,0.2,3.4,0.3,5.1l0.1,1.1
				c0.1,2.5,0.3,5.1,0.4,7.8c0,0.4,0.1,3.8,0.1,4.7c13.1-0.9,26.3-1.7,36.6-1.7c11.8,0,33.9,0,33.9,15.8c0,21.1-51,43.3-61.2,47.6
				c-3.6,1.5-7.5,3-11.4,4.5c1.9,12.5,3.5,40.4-14,59.5l159-34.6c0.5-0.1,1.1-0.2,1.6-0.2c2.9,0,5.5,1.7,6.8,4.3
				c1.5,3.2,0.6,6.9-2.1,9.1L567.8,558.2c0.3,0,0.5,0.1,0.8,0.2c2,0.4,5.4,1.6,12.8,6.4c41.9,26.9,71,70.9,79.9,120.6l16.5,92.3
				c0.1,0.4,0.1,0.8,0.1,1.2c0,0.7,1.6,71.9,1.8,126.3c0,1.9-0.7,3.6-1.9,5c-21.5,24-44.9,46.7-71.6,69.6c-1.3,2.1-3.5,3.4-6,3.5
				C600.1,983.3,599.9,983.3,599.8,983.3z"/>
			<path fill="#191818" d="M720.5,424.5l-169.2,36.8v-3c22.2-16.6,22.4-46.6,18.9-65.2c5.5-2,10.3-3.9,14.4-5.5
				c29.3-12.1,58.8-30.4,58.8-43.9c0-10.3-14.4-11.8-29.9-11.8c-11.3,0-26,1-40.5,2c0-0.4,0-0.8,0-1.2c0-1.9-0.1-3.8-0.1-5.7
				c0-0.7,0-1.3-0.1-2c-0.1-2.6-0.2-5.1-0.3-7.7c0-0.4,0-0.7-0.1-1.1c-0.1-1.7-0.2-3.4-0.3-5.1c0-0.1,0-0.2,0-0.3
				c-1.1-14.6-2.9-29.1-5.7-43.4c-2.7-13.9-6.2-28.5-14.5-41.1c-9.1-14.1-23-23-37.1-23.9c-0.9-0.1-1.7-0.1-2.6-0.1
				c-13.2,0-24.9,6.4-36.2,12.5c-8.7,4.7-17.7,9.6-27.1,11.4c-9.4-1.7-18.4-6.6-27.1-11.4c-11.3-6.1-23.1-12.5-36.2-12.5
				c-0.9,0-1.7,0-2.6,0.1c-14.1,0.9-28,9.8-37.1,23.9c-8.2,12.7-11.8,27.3-14.5,41.1c-3.4,17.8-5.5,36-6.3,54.2
				c0,0.8-0.1,1.6-0.1,2.4c-0.1,1.4-0.1,2.9-0.1,4.3c0,1.2-0.1,2.5-0.1,3.7c0,0.6,0,1.3,0,1.9c-18.1-1.3-33.1-2.3-44.9-2.3
				c-15.5,0-29.9,1.4-29.9,11.8c0,13.5,29.5,31.7,58.8,43.9c4.1,1.7,8.9,3.6,14.3,5.5c-3.5,18.7-3.3,48.7,19,65.4v2.8l-168.7-36.6
				c-1.6-0.3-3.2,0.5-3.9,1.9c-0.7,1.5-0.3,3.2,1,4.2l166,130.7c-3.2,0.1-6.6,0.3-10,0.8c-1.9,0.1-5.2,1-14.1,6.9
				c-40.2,26.5-68.2,69.1-76.8,117.1L219,778.4c0,0.2,0,0.4-0.1,0.5c0,0.7-1.6,72.2-1.8,126.2c0,0.9,0.3,1.7,0.9,2.3
				c21.9,24.4,45.8,47.6,73.2,70.9c0,0,0.1,0,0.1,0.1c0.1,0.1,0.2,0.1,0.2,0.2c0.1,0.1,0.2,0.1,0.3,0.2c0.1,0,0.2,0.1,0.3,0.1
				c0.1,0,0.2,0.1,0.3,0.1c0.1,0,0.2,0.1,0.3,0.1c0.1,0,0.3,0,0.4,0.1c0.1,0,0.1,0,0.2,0c0.1,0,0.1,0,0.2,0c0,0,0,0,0,0c0,0,0,0,0,0
				l152-0.2c0.3,0.1,0.6,0.2,1,0.2c0.3,0,0.7-0.1,1-0.2l150.8-0.2c0.4,0.2,0.9,0.3,1.4,0.3c0.1,0,0.1,0,0.2,0c1.4-0.1,2.5-0.9,3-2.1
				c26.8-22.9,50.2-45.7,71.7-69.7c0.6-0.6,0.9-1.5,0.9-2.3c-0.2-54-1.7-125.5-1.8-126.2c0-0.2,0-0.4-0.1-0.5l-16.5-92.3
				c-8.7-48.6-37.1-91.6-78.1-118c-6.7-4.3-9.8-5.5-11.6-5.9c-0.2-0.1-0.4-0.1-0.6-0.1c-3.3-0.5-6.5-0.7-9.6-0.8l166-130.7
				c1.3-1,1.7-2.8,1-4.2C723.7,424.9,722.1,424.1,720.5,424.5z"/>
			<path fill="#4F585F" d="M469,629.9l-17.1,18.8l11.5,41.1c5.2-17.2,10.5-35.3,15.4-52.4L469,629.9z"/>
			<path fill="#4F585F" d="M441.1,648.7l-17-18.7l-9.6,7.4c4.9,16.9,10.1,35,15.3,52L441.1,648.7z"/>
			<path fill="#4F585F" d="M290.4,968.5l5.3-107.8L267,829.8c-1.3-1.4-1.2-3.6,0.2-4.9c1.4-1.3,3.6-1.2,4.9,0.2l24.1,25.9l8.5-172.1
				c0.1-1.9,1.7-3.4,3.7-3.3c1.9,0.1,3.4,1.7,3.3,3.7l-14.4,293l145.9-0.2V768.6c-7.1-1.6-12.5-8-12.5-15.6c0-3.5,1.2-6.8,3.1-9.5
				c-11.4-13.1-30.6-35.5-49.7-57.8c-17.3-20.3-31-36.6-40.7-48.3c-5.8-7-10.2-12.5-13.1-16.3c-4.7-6.2-6.7-8.7-4.1-11.3
				c1.6-1.8,15-21.5,23.9-34.8l-5.3-6.6h-6.6c-3.5,0-7.3,0.3-11,0.8c-0.2,0-0.3,0-0.5,0c-0.4,0.1-2.8,0.7-10.5,5.7
				c-38.6,25.4-65.5,66.4-73.7,112.5l-16.4,92c-0.1,4.8-1.6,72.4-1.7,124.5C244.2,926.1,265.9,947.3,290.4,968.5z M329.7,775.9h51.7
				c1.9,0,3.5,1.6,3.5,3.5c0,1.9-1.6,3.5-3.5,3.5h-51.7c-1.9,0-3.5-1.6-3.5-3.5C326.2,777.5,327.8,775.9,329.7,775.9z"/>
			<path fill="#4F585F" d="M543.5,574.9c8.9,13.4,22.2,33,23.9,34.8c2.5,2.5,0.6,5.1-4.2,11.3c-2.9,3.8-7.4,9.3-13.2,16.3
				c-9.7,11.8-23.4,28.1-40.8,48.3c-19.1,22.3-38.4,44.7-49.8,57.8c2,2.7,3.1,5.9,3.1,9.5c0,7.6-5.3,14-12.5,15.6v203.5l146-0.2
				l-14.4-292.7c-0.1-1.9,1.4-3.6,3.3-3.7c1.9-0.1,3.6,1.4,3.7,3.3l8.5,172.9l24.9-26.8c1.3-1.4,3.5-1.5,4.9-0.2
				c1.4,1.3,1.5,3.5,0.2,4.9l-29.6,31.8l5.2,106.4c24.3-21,45.9-42.1,65.7-64.2c-0.2-52.1-1.6-119.6-1.7-124.5l-16.4-92
				c-8.3-46.7-35.7-88-75-113.3c-7.1-4.6-9.1-4.9-9.3-4.9c-0.2,0-0.5-0.1-0.7-0.1c-3.6-0.5-7-0.7-10.4-0.7H549L543.5,574.9z
				 M558.4,782.9h-51.7c-1.9,0-3.5-1.6-3.5-3.5c0-1.9,1.6-3.5,3.5-3.5h51.7c1.9,0,3.5,1.6,3.5,3.5
				C561.9,781.4,560.4,782.9,558.4,782.9z"/>
			<path fill="#292929" d="M446.5,613l-16.8,12.8l13.6,14.9c0.5-1.1,1.5-1.9,2.7-2.1c0.2,0,0.4,0,0.6,0c0.2,0,0.4,0,0.6,0
				c1.2,0.2,2.3,1,2.7,2.1l13.6-14.9L446.5,613z"/>
			<path fill="#292929" d="M446.5,655.4l-13,46.5c4,13,7.8,25.1,11.2,35.2c0.6-0.1,1.2-0.1,1.9-0.1c0.6,0,1.2,0,1.9,0.1
				c3.4-10,7.2-22,11.1-34.9L446.5,655.4z"/>
			<path fill="#FFFFFF" d="M440.7,608.4L396.6,574c3.3,11.8,9.1,32.5,15.8,56.2L440.7,608.4z"/>
			<path fill="#FFFFFF" d="M452.5,608.4l28.3,21.8c6.8-23.7,12.6-44.5,15.8-56.2L452.5,608.4z"/>
			<path fill="#363E44" d="M443.1,761.3v-7c-0.9-1-2.4-2.8-4.6-5.3c-0.6,1.2-0.9,2.5-0.9,3.9C437.7,756.7,439.9,759.9,443.1,761.3z"
				/>
			<path fill="#363E44" d="M450.1,761.3c3.2-1.4,5.5-4.6,5.5-8.3c0-1.4-0.3-2.7-0.9-3.9c-2.1,2.4-3.7,4.2-4.5,5.2V761.3z"/>
			<path fill="#EBB47B" d="M488.3,534.7l-12.5,8.3c-0.1,0.1-0.2,0.2-0.4,0.2c-8.9,4.4-18.9,6.8-28.8,6.8c-9.9,0-19.9-2.4-28.8-6.8
				c-0.1-0.1-0.3-0.1-0.4-0.2l-12-8c0.7,6.4,2.2,17.3,4.4,32.3c0.2,1.2-0.3,2.4-1.1,3.1c-0.9,0.8-2.1,1.1-3.3,0.8l-1.5-0.4
				l42.7,33.2l42.5-33l-0.8,0.2c-1.1,0.3-2.4,0-3.3-0.8c-0.9-0.8-1.3-2-1.1-3.1C486.2,552.1,487.6,541.1,488.3,534.7z"/>
			<path fill="#D7A571" d="M341.9,449.1v-50c-4.3-1.3-8.4-2.6-12.3-3.9c-1.3,7.5-2.1,17.3-0.6,27
				C330.8,433.5,335.1,442.4,341.9,449.1z"/>
			<path fill="#D7A571" d="M551.3,449c6.7-6.6,11-15.6,12.7-26.7c1.5-9.7,0.7-19.5-0.6-27c-3.8,1.3-7.9,2.6-12.2,3.8V449z"/>
			<path fill="#EBB47B" d="M477.7,413c-10,0.9-20.3,1.4-31.1,1.4c-11.8,0-23.1-0.6-33.9-1.6c7.1,3.4,12.2,10.2,13.4,18.3h38.7
				C466,423.2,470.9,416.5,477.7,413z"/>
			<path fill="#EBB47B" d="M348.9,465.4L348.9,465.4l0,10c0,9.3,4.9,17.8,12.8,22.5c0.5,0.3,1.1,0.6,1.6,0.9
				c0.1,0.1,0.3,0.1,0.4,0.2l57.4,38.1c7.9,3.9,16.7,6,25.5,6c8.8,0,17.6-2.1,25.5-6l18.7-12.4c0,0,0,0,0,0l38.7-25.7
				c0.1-0.1,0.2-0.2,0.4-0.2c1.1-0.6,2.2-1.2,3.2-1.9c7-4.8,11.3-12.8,11.3-21.5v-9.8v-64.5c-14.3,3.9-31,7.6-49.5,10
				c10.4,2.7,18.1,12.2,18.1,23.4c0,13.3-10.8,24.2-24.2,24.2c-12.1,0-22.2-9-23.9-20.7h-38.7c-1.7,11.7-11.8,20.7-23.9,20.7
				c-13.3,0-24.2-10.8-24.2-24.2c0-11.5,8.1-21.2,18.9-23.6c-17.9-2.5-34.1-6-48-9.8V465.4z"/>
			<path fill="#363E44" d="M351.6,230.2c-7.6,11.7-10.9,25.5-13.5,38.6c-2.5,13-4.2,26.2-5.3,39.5c33.7,24.5,116.2,24.8,117,24.8
				c0.8,0,80.2-0.3,115-23.4c-1.1-13.7-2.9-27.4-5.4-40.9c-2.5-13.2-5.9-27-13.5-38.6c-7.9-12.2-19.8-20-31.7-20.7
				c-0.7,0-1.4-0.1-2.1-0.1c-11.4,0-21.8,5.7-32.9,11.7c-9.4,5.1-19.1,10.4-29.9,12.2c-0.4,0.1-0.8,0.1-1.2,0
				c-10.7-1.8-20.5-7.1-29.9-12.2c-11.1-6-21.5-11.7-32.9-11.7c-0.7,0-1.4,0-2.1,0.1C371.4,210.3,359.6,218,351.6,230.2z"/>
			<path fill="#363E44" d="M446.6,407.4c62.3,0,111.5-16.6,135.3-26.4c37.1-15.4,54.4-31.4,54.4-37.4c0-1.1-1.7-4.8-22.9-4.8
				c-11.7,0-27.5,1.1-42.7,2.2c-6.5,4.7-46.4,31.7-120.9,31.7c-74.7,0-116.1-26.7-122.7-31.3c-19.4-1.4-35.2-2.5-47.4-2.5
				c-21.2,0-22.9,3.6-22.9,4.8c0,6,17.3,22,54.4,37.4C335.1,390.8,384.3,407.4,446.6,407.4z"/>
			<path fill="#D1D2D1" d="M566,335.8c0-6-0.2-12.1-0.6-18.2c-37.9,22.2-112.3,22.5-115.6,22.5c-3.4,0-80.4-0.3-117.6-23.7
				c-0.4,6.5-0.6,13.1-0.6,19.5c7.3,4.9,48,29.8,118.2,29.8C519.6,365.7,558.5,341,566,335.8z"/>
			<path fill="#363E44" d="M186.5,434.5l162,127.5c0.2,0.2,0.4,0.4,0.6,0.6l8,9.9c1,1.2,1,2.9,0.2,4.1c-4.8,7.3-19.3,29-24.5,36
				c7.8,11.5,62.2,75.2,104.6,124.3c-19-57.2-49.9-170-50.3-171.2c-0.3-1.1-0.1-2.2,0.6-3c0.7-0.9,1.7-1.4,2.8-1.4h4.6
				c0.3,0,0.6,0,0.9,0.1l6.2,1.7c-1.4-9.9-3.7-26.3-4.2-33L360,504.9c-11.2-5.7-18.1-17-18.1-29.5v-7.2L186.5,434.5z"/>
			<path fill="#363E44" d="M551.3,475.4c0,12.5-6.9,23.8-18.1,29.5l-37.4,24.8c-0.4,6.5-2.7,23.3-4.2,33.3l6.2-1.7
				c0.3-0.1,0.6-0.1,0.9-0.1h4.2c1.1,0,2.1,0.5,2.8,1.4c0.7,0.9,0.9,2,0.6,3c-0.3,1.3-31.3,114-50.3,171.2
				c42.5-49.1,97-112.8,104.8-124.3c-5.2-7-19.7-28.7-24.5-36c-0.9-1.3-0.8-3,0.2-4.2l8-9.7c0.2-0.3,0.4-0.6,0.7-0.8l162-127.5
				l-155.8,33.9V475.4z"/>
			<path fill="#191818" d="M720.5,424.5l-169.2,36.8v-3c22.2-16.6,22.4-46.6,18.9-65.2c5.5-2,10.3-3.9,14.4-5.5
				c29.3-12.1,58.8-30.4,58.8-43.9c0-10.3-14.4-11.8-29.9-11.8c-11.3,0-26,1-40.5,2c0-0.4,0-0.8,0-1.2c0-1.9-0.1-3.8-0.1-5.7
				c0-0.7,0-1.3-0.1-2c-0.1-2.6-0.2-5.1-0.3-7.7c0-0.4,0-0.7-0.1-1.1c-0.1-1.7-0.2-3.4-0.3-5.1c0-0.1,0-0.2,0-0.3
				c-1.1-14.6-2.9-29.1-5.7-43.4c-2.7-13.9-6.2-28.5-14.5-41.1c-9.1-14.1-23-23-37.1-23.9c-0.9-0.1-1.7-0.1-2.6-0.1
				c-13.2,0-24.9,6.4-36.2,12.5c-8.7,4.7-17.7,9.6-27.1,11.4c-9.4-1.7-18.4-6.6-27.1-11.4c-11.3-6.1-23.1-12.5-36.2-12.5
				c-0.9,0-1.7,0-2.6,0.1c-14.1,0.9-28,9.8-37.1,23.9c-8.2,12.7-11.8,27.3-14.5,41.1c-3.4,17.8-5.5,36-6.3,54.2
				c0,0.8-0.1,1.6-0.1,2.4c-0.1,1.4-0.1,2.9-0.1,4.3c0,1.2-0.1,2.5-0.1,3.7c0,0.6,0,1.3,0,1.9c-18.1-1.3-33.1-2.3-44.9-2.3
				c-15.5,0-29.9,1.4-29.9,11.8c0,13.5,29.5,31.7,58.8,43.9c4.1,1.7,8.9,3.6,14.3,5.5c-3.5,18.7-3.3,48.7,19,65.4v2.8l-168.7-36.6
				c-1.6-0.3-3.2,0.5-3.9,1.9c-0.7,1.5-0.3,3.2,1,4.2l166,130.7c-3.2,0.1-6.6,0.3-10,0.8c-1.9,0.1-5.2,1-14.1,6.9
				c-40.2,26.5-68.2,69.1-76.8,117.1L219,778.4c0,0.2,0,0.4-0.1,0.5c0,0.7-1.6,72.2-1.8,126.2c0,0.9,0.3,1.7,0.9,2.3
				c21.9,24.4,45.8,47.6,73.2,70.9c0,0,0.1,0,0.1,0.1c0.1,0.1,0.2,0.1,0.2,0.2c0.1,0.1,0.2,0.1,0.3,0.2c0.1,0,0.2,0.1,0.3,0.1
				c0.1,0,0.2,0.1,0.3,0.1c0.1,0,0.2,0.1,0.3,0.1c0.1,0,0.3,0,0.4,0.1c0.1,0,0.1,0,0.2,0c0.1,0,0.1,0,0.2,0c0,0,0,0,0,0c0,0,0,0,0,0
				l152-0.2c0.3,0.1,0.6,0.2,1,0.2c0.3,0,0.7-0.1,1-0.2l150.8-0.2c0.4,0.2,0.9,0.3,1.4,0.3c0.1,0,0.1,0,0.2,0c1.4-0.1,2.5-0.9,3-2.1
				c26.8-22.9,50.2-45.7,71.7-69.7c0.6-0.6,0.9-1.5,0.9-2.3c-0.2-54-1.7-125.5-1.8-126.2c0-0.2,0-0.4-0.1-0.5l-16.5-92.3
				c-8.7-48.6-37.1-91.6-78.1-118c-6.7-4.3-9.8-5.5-11.6-5.9c-0.2-0.1-0.4-0.1-0.6-0.1c-3.3-0.5-6.5-0.7-9.6-0.8l166-130.7
				c1.3-1,1.7-2.8,1-4.2C723.7,424.9,722.1,424.1,720.5,424.5z M565.5,569c0.2,0.1,0.5,0.1,0.7,0.1c0.2,0,2.1,0.3,9.3,4.9
				c39.3,25.3,66.6,66.6,75,113.3l16.4,92c0.1,4.8,1.6,72.4,1.7,124.5c-19.8,22.1-41.4,43.1-65.7,64.2l-5.2-106.4l29.6-31.8
				c1.3-1.4,1.2-3.6-0.2-4.9c-1.4-1.3-3.6-1.2-4.9,0.2l-24.9,26.8l-8.5-172.9c-0.1-1.9-1.7-3.4-3.7-3.3c-1.9,0.1-3.4,1.7-3.3,3.7
				L596.1,972l-146,0.2V768.6c7.1-1.6,12.5-8,12.5-15.6c0-3.5-1.2-6.8-3.1-9.5c11.4-13.1,30.7-35.5,49.8-57.8
				c17.3-20.3,31.1-36.6,40.8-48.3c5.8-7,10.2-12.5,13.2-16.3c4.8-6.2,6.7-8.7,4.2-11.3c-1.7-1.8-15-21.5-23.9-34.8l5.5-6.7h6.1
				C558.5,568.3,561.9,568.5,565.5,569z M226,779.4l16.4-92c8.2-46.1,35.1-87.1,73.7-112.5c7.7-5.1,10-5.7,10.5-5.7
				c0.2,0,0.3,0,0.5,0c3.8-0.5,7.5-0.8,11-0.8h6.6l5.3,6.6c-8.9,13.4-22.2,33-23.9,34.8c-2.6,2.6-0.6,5.1,4.1,11.3
				c2.9,3.8,7.4,9.3,13.1,16.3c9.7,11.8,23.4,28.1,40.7,48.3c19,22.3,38.3,44.7,49.7,57.8c-2,2.7-3.1,5.9-3.1,9.5
				c0,7.6,5.3,14,12.5,15.6v203.5l-145.9,0.2l14.4-293c0.1-1.9-1.4-3.6-3.3-3.7c-1.9-0.1-3.6,1.4-3.7,3.3L296.2,851L272.1,825
				c-1.3-1.4-3.5-1.5-4.9-0.2c-1.4,1.3-1.5,3.5-0.2,4.9l28.7,30.9l-5.3,107.8c-24.5-21.2-46.2-42.4-66.2-64.6
				C224.4,851.8,225.9,784.2,226,779.4z M329.7,395.3c3.8,1.3,7.9,2.6,12.3,3.9v50c-6.8-6.7-11.1-15.6-12.8-26.8
				C327.6,412.5,328.4,402.8,329.7,395.3z M256.9,343.6c0-1.1,1.7-4.8,22.9-4.8c12.2,0,28,1.1,47.4,2.5
				c6.6,4.6,48.1,31.3,122.7,31.3c74.6,0,114.5-26.9,120.9-31.7c15.2-1.1,31-2.2,42.7-2.2c21.2,0,22.9,3.6,22.9,4.8
				c0,6-17.3,22-54.4,37.4c-23.8,9.9-73,26.4-135.3,26.4S335.1,390.8,311.3,381C274.2,365.6,256.9,349.5,256.9,343.6z M418.3,221.1
				c9.4,5.1,19.1,10.4,29.9,12.2c0.4,0.1,0.8,0.1,1.2,0c10.7-1.8,20.5-7.1,29.9-12.2c11.1-6,21.5-11.7,32.9-11.7
				c0.7,0,1.4,0,2.1,0.1c11.9,0.8,23.8,8.5,31.7,20.7c7.6,11.7,10.9,25.5,13.5,38.6c2.6,13.4,4.4,27.1,5.4,40.9
				c-34.8,23.1-114.2,23.4-115,23.4c-0.8,0-83.3-0.3-117-24.8c1.1-13.3,2.8-26.5,5.3-39.5c2.5-13.2,5.9-27,13.5-38.6
				c7.9-12.2,19.8-20,31.7-20.7c0.7,0,1.4-0.1,2.1-0.1C396.8,209.4,407.3,215.1,418.3,221.1z M449.9,365.7
				c-70.3,0-111-24.9-118.2-29.8c0-6.4,0.3-13,0.6-19.5c37.2,23.5,114.2,23.7,117.6,23.7c3.3,0,77.7-0.3,115.6-22.5
				c0.3,6,0.5,12.1,0.6,18.2C558.5,341,519.6,365.7,449.9,365.7z M564,422.3c-1.7,11.2-6,20.1-12.7,26.7v-49.9
				c4.3-1.3,8.4-2.6,12.2-3.8C564.8,402.8,565.5,412.5,564,422.3z M426.1,431.1c-1.2-8.1-6.3-14.8-13.4-18.3
				c10.8,1,22.1,1.6,33.9,1.6c10.8,0,21.2-0.5,31.1-1.4c-6.8,3.5-11.8,10.1-12.9,18H426.1z M348.9,401.1c13.9,3.8,30.1,7.4,48,9.8
				c-10.8,2.4-18.9,12.1-18.9,23.6c0,13.3,10.8,24.2,24.2,24.2c12.1,0,22.2-9,23.9-20.7h38.7c1.7,11.7,11.8,20.7,23.9,20.7
				c13.3,0,24.2-10.8,24.2-24.2c0-11.2-7.7-20.7-18.1-23.4c18.5-2.5,35.2-6.1,49.5-10v64.5v9.8c0,8.7-4.2,16.6-11.3,21.5
				c-1,0.7-2.1,1.3-3.2,1.9c-0.1,0.1-0.3,0.1-0.4,0.2l-38.7,25.7c0,0,0,0,0,0l-18.7,12.4c-7.9,3.9-16.7,6-25.5,6
				c-8.8,0-17.6-2.1-25.5-6L363.7,499c-0.1-0.1-0.2-0.2-0.4-0.2c-0.6-0.3-1.1-0.6-1.6-0.9c-7.9-4.7-12.8-13.1-12.8-22.5v-10l0,0
				V401.1z M485.1,570.5c0.9,0.8,2.1,1.1,3.3,0.8l0.8-0.2l-42.5,33l-42.7-33.2l1.5,0.4c1.1,0.3,2.4,0,3.3-0.8c0.9-0.8,1.3-2,1.1-3.1
				c-2.2-15-3.6-25.9-4.4-32.3l12,8c0.1,0.1,0.2,0.2,0.4,0.2c8.9,4.4,18.9,6.8,28.8,6.8c9.9,0,19.9-2.4,28.8-6.8
				c0.1-0.1,0.3-0.1,0.4-0.2l12.5-8.3c-0.7,6.4-2.2,17.4-4.4,32.7C483.7,568.6,484.2,569.7,485.1,570.5z M455.6,753
				c0,3.7-2.3,6.9-5.5,8.3v-7c0.9-1,2.4-2.8,4.5-5.2C455.3,750.3,455.6,751.6,455.6,753z M438.6,749.1c2.1,2.4,3.7,4.2,4.6,5.3v7
				c-3.2-1.4-5.5-4.6-5.5-8.3C437.7,751.6,438,750.3,438.6,749.1z M446.6,737c-0.6,0-1.2,0-1.9,0.1c-3.4-10.1-7.2-22.2-11.2-35.2
				l13-46.5l13.1,46.9c-4,12.9-7.7,24.8-11.1,34.9C447.9,737.1,447.3,737,446.6,737z M449.8,640.7c-0.5-1.1-1.5-1.9-2.7-2.1
				c-0.2,0-0.4,0-0.6,0c-0.2,0-0.4,0-0.6,0c-1.2,0.2-2.3,1-2.7,2.1l-13.6-14.9l16.8-12.8l16.8,12.8L449.8,640.7z M440.7,608.4
				l-28.3,21.8c-6.8-23.7-12.6-44.4-15.8-56.2L440.7,608.4z M424.1,630l17,18.7l-11.4,40.7c-5.1-17.1-10.4-35.1-15.3-52L424.1,630z
				 M451.9,648.7l17.1-18.8l9.7,7.5c-4.9,17-10.2,35.2-15.4,52.4L451.9,648.7z M452.5,608.4l44.2-34.4c-3.3,11.7-9.1,32.5-15.8,56.2
				L452.5,608.4z M360,504.9l37.9,25.2c0.5,6.7,2.8,23.1,4.2,33l-6.2-1.7c-0.3-0.1-0.6-0.1-0.9-0.1h-4.6c-1.1,0-2.1,0.5-2.8,1.4
				c-0.7,0.9-0.9,2-0.6,3c0.3,1.3,31.3,114,50.3,171.2c-42.4-49.1-96.8-112.8-104.6-124.3c5.2-7,19.7-28.7,24.5-36
				c0.8-1.3,0.8-2.9-0.2-4.1l-8-9.9c-0.2-0.2-0.4-0.4-0.6-0.6l-162-127.5l155.4,33.7v7.2C341.9,488,348.9,499.3,360,504.9z
				 M545.2,562c-0.3,0.2-0.5,0.5-0.7,0.8l-8,9.7c-1,1.2-1.1,2.9-0.2,4.2c4.8,7.3,19.3,28.9,24.5,36c-7.8,11.5-62.3,75.3-104.8,124.3
				c19-57.2,50-170,50.3-171.2c0.3-1.1,0.1-2.2-0.6-3c-0.7-0.9-1.7-1.4-2.8-1.4h-4.2c-0.3,0-0.6,0-0.9,0.1l-6.2,1.7
				c1.5-10,3.8-26.9,4.2-33.3l37.4-24.8c11.2-5.7,18.1-17,18.1-29.5v-7l155.8-33.9L545.2,562z"/>
			<path fill="#191818" d="M558.4,775.9h-51.7c-1.9,0-3.5,1.6-3.5,3.5c0,1.9,1.6,3.5,3.5,3.5h51.7c1.9,0,3.5-1.6,3.5-3.5
				C561.9,777.5,560.4,775.9,558.4,775.9z"/>
			<path fill="#191818" d="M329.7,782.9h51.7c1.9,0,3.5-1.6,3.5-3.5c0-1.9-1.6-3.5-3.5-3.5h-51.7c-1.9,0-3.5,1.6-3.5,3.5
				C326.2,781.4,327.8,782.9,329.7,782.9z"/>
		</g>
		<g>
			<path fill="#191818" d="M924.7,847.6c-0.4,0-0.9,0-1.3,0c-32.3-1.1-73.8-10.1-88.4-46.7c-9.7-24.4,1.8-66.2,34.2-124.2
				c23.6-42.2,50.9-79.6,58-89.1v-17.7c0-4.1,3.4-7.5,7.5-7.5c18.5,0,34.5-3.8,47.7-11.4c-0.2-0.6-0.4-1.2-0.6-1.8
				c-4.8-14.1-17.3-25.1-31.9-28c-0.8-0.2-1.6-0.3-2.4-0.4c-3.1-0.5-6.5-1.1-10-2.8c-6.5-3.1-10.6-9.1-10.4-15.4
				c0.3-9.2,8.6-14.4,16.2-16.3c3.8-0.9,7.8-1.4,11.8-1.4c14.6,0,28.9,6.3,38.4,16.9c0.8,0.9,1.6,1.9,2.4,2.9
				c2.5,2.9,4.8,5.7,7.1,6.3c0.4,0.1,0.7,0.1,1.2,0.1c1.5,0,3.5-0.5,5.5-1c2.2-0.5,4.8-1.1,7.6-1.3c5.8-14.7,6.8-27,6.8-27.1
				c0.3-3.9,3.6-7,7.5-7h144.1c4.1,0,7.5,3.4,7.5,7.5v8.3h131.8V470c0-4.1,3.4-7.5,7.5-7.5h20.1c4.1,0,7.5,3.4,7.5,7.5v20.4h49.7
				c4.1,0,7.5,3.4,7.5,7.5v45.8c0,4.1-3.4,7.5-7.5,7.5h-41.7v16.2c0,4.1-3.4,7.5-7.5,7.5h-103.6c-12.8,8.9-19.3,25.7-22.6,38.4
				c-2.7,10.7-10.3,19.3-20.5,23.3c-6.2,18.7-24.2,71.1-35.2,81.1c-13.4,12.1-81.3,21-106,21c-1.5,0-2.9,0-4.2-0.1
				c-22.7-0.9-32.2-23.8-39.1-40.5c-2.5-6.1-5.1-12.3-7.5-15.2c-2.8-3.3-6.3-5-10.9-5c-3,0-5.4,0.8-5.7,0.9l-0.3,0.1l-0.2,0
				c-0.4,0.1-0.8,0.2-1.2,0.3l-0.2,0l-0.1,0c-0.2,0-0.4,0-0.7,0l-0.4,0c-1.8,0-11.5,0.3-20.6,6c-11.6,7.2-17.4,20.3-17.4,38.8
				c0,28.7,4.1,59.2,7.5,79.8c1.8,10.9-1.2,22-8.4,30.4C946.3,842.8,935.8,847.6,924.7,847.6L924.7,847.6z M1064.1,704.5
				c6.7-0.2,14.3-0.5,22.1-1c-5.2-2.3-9.9-5.4-13.9-9.4c-8.7-8.5-13.7-20.5-14-32.6c-2.3-0.2-4.5-0.7-6.7-1.4l-2.3,3.2L1064.1,704.5
				z M1102.6,639c-4.1,2.4-7.3,6.4-8.9,11c-2.5,7.2-1.3,16.2,3.1,24c4,7.1,10.6,13.4,19.6,18.9c2.5,1.5,3.8,4.3,3.6,7.1
				c13.4-2,24.5-4.6,29.5-8.1c9.3-6.4,15.8-31.1,18.2-52.9H1102.6z"/>
			<path fill="#191818" d="M1399.9,494.4h-53.7V470c0-1.9-1.6-3.5-3.5-3.5h-20.1c-1.9,0-3.5,1.6-3.5,3.5v24.4h-139.8v-12.3
				c0-1.9-1.6-3.5-3.5-3.5h-144.1c-1.8,0-3.4,1.4-3.5,3.3c0,0.2-1.1,14.3-8.1,30.8c-3.3-0.2-6.4,0.5-9.4,1.2
				c-2.3,0.5-4.4,1.1-6.4,1.1c-0.8,0-1.5-0.1-2.1-0.2c-3.5-0.8-6.3-4.1-9.2-7.6c-0.8-0.9-1.6-1.9-2.4-2.8
				c-8.7-9.7-22-15.6-35.4-15.6c-3.7,0-7.3,0.4-10.8,1.3c-6.2,1.5-12.9,5.6-13.2,12.6c-0.2,4.7,3,9.3,8.1,11.7c3,1.4,6,1.9,8.9,2.4
				c0.8,0.1,1.7,0.3,2.5,0.5c16,3.2,29.6,15.2,34.9,30.7c0.5,1.4,0.9,2.8,1.4,4.3c0.1,0.2,0.1,0.4,0.2,0.7
				c-14.3,9-31.8,13.6-52.4,13.6c-1.9,0-3.5,1.6-3.5,3.5v19c-10.6,14.1-114.5,155-92.5,210.5c13.8,34.6,53.7,43.1,84.8,44.2
				c0.4,0,0.8,0,1.2,0c0,0,0,0,0,0c9.9,0,19.2-4.3,25.6-11.9c6.4-7.5,9.1-17.4,7.5-27.1c-3.5-20.7-7.6-51.5-7.6-80.5
				c0-20,6.5-34.2,19.3-42.2c10-6.3,20.7-6.6,22.7-6.6c0.2,0,0.3,0,0.3,0c0.2,0,0.3,0,0.5,0c0,0,0,0,0,0c0.3,0,0.5-0.1,0.7-0.2
				c0,0,0.1,0,0.1,0c0,0,3.1-1.1,7.1-1.1c5.7,0,10.4,2.2,14,6.4c2.7,3.3,5.3,9.5,8.1,16.2c6.9,16.6,15.4,37.3,35.6,38.1
				c1.2,0,2.6,0.1,4,0.1c0,0,0,0,0,0c26.8,0,91.6-9.2,103.4-20c11-10,31.2-70.6,34.7-81.2c9.6-3.1,17.2-11,19.8-21.2
				c3.5-13.8,10.8-32,25.2-41.4h104.9c1.9,0,3.5-1.6,3.5-3.5v-20.2h45.7c1.9,0,3.5-1.6,3.5-3.5v-45.8
				C1403.4,495.9,1401.8,494.4,1399.9,494.4z M1044.7,662.7l5.2-7.3c3.9,1.5,8.1,2.3,12.3,2.3c0,0,0,0,0,0
				c-0.8,12.3,3.9,24.9,12.8,33.6c7.9,7.8,19,12.3,30.4,12.3c2.6,0,5.3-0.2,7.8-0.7c1.4-0.3,2.5-1.4,2.8-2.8
				c0.3-1.4-0.4-2.9-1.6-3.6c-9.6-5.8-16.6-12.6-21-20.3c-5-8.8-6.3-19-3.4-27.3c2.1-6,6.4-11,11.6-13.7h70.6
				c-1.4,16.6-7,51.1-20.3,60.2c-14.3,9.8-67.9,12.9-90.5,13.3L1044.7,662.7z"/>
			<path fill="#4E575E" d="M1054.2,649.4c2.6,0.8,5.3,1.3,8,1.3c1.2,0,2.3-0.1,3.5-0.2c0.2,0,0.3,0,0.5,0c0.9,0,1.8,0.4,2.5,1.1
				c0.8,0.8,1.1,1.9,0.9,3c-2,11.5,2,23.6,10.3,31.8c5.9,5.8,13.8,9.3,22.2,10.1c-6.3-5-11.3-10.7-14.8-16.8c-6-10.5-7.5-22.9-4-33
				c1.5-4.3,3.9-8.2,7-11.5h-25.6L1054.2,649.4z"/>
			<path fill="#1C2328" d="M989.3,662.1c0-28.2-9.2-48.2-27.4-59.7c-10.7-6.7-21.4-8.3-25.5-8.7c-11.7,15.8-111.3,152.4-91.2,203.1
				c12.4,31.1,49.5,38.8,78.5,39.8c0.3,0,0.6,0,0.9,0c0,0,0,0,0,0c7.8,0,15.2-3.4,20.3-9.4c5-6,7.2-13.8,5.9-21.5
				c-3.5-21-7.7-52.2-7.7-81.6c0-48.2,34.7-54.8,46-55.7V662.1z M926,823c-8.5,0-15.5-7-15.5-15.5c0-8.5,7-15.5,15.5-15.5
				s15.5,7,15.5,15.5C941.5,816,934.5,823,926,823z"/>
			<path fill="#363E44" d="M1234.7,570.9h-55.3v15.1v18.1c0,1.9-1.6,3.5-3.5,3.5h-117c-1.9,0-3.5-1.6-3.5-3.5V497.9
				c0-1.9,1.6-3.5,3.5-3.5h113.5v-8.8h-137.5c-0.7,5.3-2.7,16.4-7.9,29c4.3,2.2,7.9,6.1,9.8,11.1c2.3,5.7,2.4,12.6,0.5,20
				c-3.4,12.9-12.4,23.2-23.4,26.9c-2.5,0.8-5,1.3-7.2,1.3c-1.7,0-3.4-0.2-4.9-0.7c-6.6-2.1-10-7.5-12.3-13.6
				c-12.9,7.8-29.6,13.3-51.2,13.8v13.5c5.4,0.6,16.3,2.7,27.4,9.6c13.5,8.5,29.6,26.2,30.6,62.1h42.8l21-29.2
				c0.7-0.9,1.7-1.5,2.8-1.5h113.1h15.6c10.6,0,19.8-7.2,22.4-17.4C1217.1,598,1223.2,582,1234.7,570.9z"/>
			<polygon fill="#363E44" points="1322.7,501.4 1179.4,501.4 1179.4,516 1179.4,532 1179.4,540.1 1350.7,540.1 1396.4,540.1 
				1396.4,501.4 1342.8,501.4 			"/>
			<path fill="#191818" d="M1399.9,494.4h-53.7V470c0-1.9-1.6-3.5-3.5-3.5h-20.1c-1.9,0-3.5,1.6-3.5,3.5v24.4h-139.8v-12.3
				c0-1.9-1.6-3.5-3.5-3.5h-144.1c-1.8,0-3.4,1.4-3.5,3.3c0,0.2-1.1,14.3-8.1,30.8c-3.3-0.2-6.4,0.5-9.4,1.2
				c-2.3,0.5-4.4,1.1-6.4,1.1c-0.8,0-1.5-0.1-2.1-0.2c-3.5-0.8-6.3-4.1-9.2-7.6c-0.8-0.9-1.6-1.9-2.4-2.8
				c-8.7-9.7-22-15.6-35.4-15.6c-3.7,0-7.3,0.4-10.8,1.3c-6.2,1.5-12.9,5.6-13.2,12.6c-0.2,4.7,3,9.3,8.1,11.7c3,1.4,6,1.9,8.9,2.4
				c0.8,0.1,1.7,0.3,2.5,0.5c16,3.2,29.6,15.2,34.9,30.7c0.5,1.4,0.9,2.8,1.4,4.3c0.1,0.2,0.1,0.4,0.2,0.7
				c-14.3,9-31.8,13.6-52.4,13.6c-1.9,0-3.5,1.6-3.5,3.5v19c-10.6,14.1-114.5,155-92.5,210.5c13.8,34.6,53.7,43.1,84.8,44.2
				c0.4,0,0.8,0,1.2,0c0,0,0,0,0,0c9.9,0,19.2-4.3,25.6-11.9c6.4-7.5,9.1-17.4,7.5-27.1c-3.5-20.7-7.6-51.5-7.6-80.5
				c0-20,6.5-34.2,19.3-42.2c10-6.3,20.7-6.6,22.7-6.6c0.2,0,0.3,0,0.3,0c0.2,0,0.3,0,0.5,0c0,0,0,0,0,0c0.3,0,0.5-0.1,0.7-0.2
				c0,0,0.1,0,0.1,0c0,0,3.1-1.1,7.1-1.1c5.7,0,10.4,2.2,14,6.4c2.7,3.3,5.3,9.5,8.1,16.2c6.9,16.6,15.4,37.3,35.6,38.1
				c1.2,0,2.6,0.1,4,0.1c0,0,0,0,0,0c26.8,0,91.6-9.2,103.4-20c11-10,31.2-70.6,34.7-81.2c9.6-3.1,17.2-11,19.8-21.2
				c3.5-13.8,10.8-32,25.2-41.4h104.9c1.9,0,3.5-1.6,3.5-3.5v-20.2h45.7c1.9,0,3.5-1.6,3.5-3.5v-45.8
				C1403.4,495.9,1401.8,494.4,1399.9,494.4z M1192.9,635c-9.3,28-24.4,68-31.5,74.5c-8.8,8-68.8,18.2-98.7,18.2
				c-1.3,0-2.6,0-3.7-0.1c-15.7-0.6-23-18.2-29.4-33.8c-3.1-7.4-5.7-13.9-9.2-18c-4.9-5.8-11.5-8.9-19.3-8.9c-1.8,0-3.5,0.2-4.9,0.4
				v-1.7h42l17.3,47.7c0.5,1.4,1.8,2.3,3.3,2.3c0,0,0,0,0,0c3.1,0,77.2-1.2,96.8-14.6c17.5-12,22.3-53.8,23.4-66h12.3H1192.9z
				 M943.3,724.1c0,29.4,4.2,60.6,7.7,81.6c1.3,7.7-0.9,15.5-5.9,21.5c-5.1,6-12.5,9.4-20.3,9.4c0,0,0,0,0,0c-0.3,0-0.6,0-0.9,0
				c-29-1-66.2-8.7-78.5-39.8c-20.1-50.7,79.4-187.3,91.2-203.1c4.1,0.4,14.8,2,25.5,8.7c18.2,11.4,27.4,31.5,27.4,59.7v6.3
				C978,669.3,943.3,675.9,943.3,724.1z M1083.3,646.5c-3.5,10.2-2,22.5,4,33c3.5,6.2,8.5,11.8,14.8,16.8
				c-8.3-0.8-16.3-4.3-22.2-10.1c-8.3-8.1-12.2-20.3-10.3-31.8c0.2-1.1-0.2-2.2-0.9-3c-0.7-0.7-1.6-1.1-2.5-1.1c-0.2,0-0.3,0-0.5,0
				c-1.1,0.2-2.3,0.2-3.5,0.2c-2.7,0-5.4-0.4-8-1.3l10.4-14.4h25.6C1087.2,638.2,1084.8,642.1,1083.3,646.5z M1062.3,657.7
				C1062.3,657.7,1062.3,657.7,1062.3,657.7c-0.8,12.3,3.9,24.9,12.8,33.6c7.9,7.8,19,12.3,30.4,12.3c2.6,0,5.3-0.2,7.8-0.7
				c1.4-0.3,2.5-1.4,2.8-2.8c0.3-1.4-0.4-2.9-1.6-3.6c-9.6-5.8-16.6-12.6-21-20.3c-5-8.8-6.3-19-3.4-27.3c2.1-6,6.4-11,11.6-13.7
				h70.6c-1.4,16.6-7,51.1-20.3,60.2c-14.3,9.8-67.9,12.9-90.5,13.3l-16.6-45.9l5.2-7.3C1053.9,656.8,1058,657.7,1062.3,657.7z
				 M1191.5,628h-15.6h-113.1c-1.1,0-2.2,0.5-2.8,1.5l-21,29.2h-42.8c-1-35.9-17-53.6-30.6-62.1c-11-6.9-22-9-27.4-9.6v-13.5
				c21.6-0.5,38.3-6.1,51.2-13.8c2.3,6,5.7,11.5,12.3,13.6c1.5,0.5,3.2,0.7,4.9,0.7c2.3,0,4.7-0.4,7.2-1.3c11-3.7,19.9-14,23.4-26.9
				c2-7.4,1.8-14.3-0.5-20c-2-5-5.5-8.9-9.8-11.1c5.3-12.6,7.2-23.7,7.9-29h137.5v8.8h-113.5c-1.9,0-3.5,1.6-3.5,3.5v106.2
				c0,1.9,1.6,3.5,3.5,3.5h117c1.9,0,3.5-1.6,3.5-3.5v-18.1v-15.1h55.3c-11.5,11.1-17.6,27.1-20.8,39.7
				C1211.2,620.8,1202,628,1191.5,628z M993.7,550.2c-0.5-1.5-0.9-3-1.4-4.5c-6-17.7-21.8-31.6-40.1-35.3c-0.9-0.2-1.8-0.3-2.6-0.5
				c-2.6-0.5-5.1-0.9-7.2-1.9c-2-0.9-4.1-2.9-4.1-5.1c0.1-2.9,4-5.1,7.8-6c2.9-0.7,6-1.1,9.1-1.1c11.5,0,22.8,4.9,30.2,13.2
				c0.7,0.8,1.5,1.7,2.2,2.6c3.3,4,7.1,8.5,12.9,9.9c1.2,0.3,2.4,0.4,3.8,0.4c2.8,0,5.5-0.6,8.1-1.3c2.7-0.6,5.1-1.2,7.5-1
				c4.3,0.4,8.5,3.8,10.4,8.6c2.1,5.4,1.3,11.5,0.2,15.6c-2.8,10.7-10,19.1-18.8,22.1c-3,1-5.7,1.2-7.8,0.5
				C998.1,564.6,996,557.6,993.7,550.2z M1326.2,473.5h13.1v20.9h-13.1V473.5z M1062.4,600.6v-99.2h110v11.1h-86.6
				c-6.3,0-11.5,5.2-11.5,11.5c0,6.3,5.2,11.5,11.5,11.5h86.6v4h-86.6c-6.3,0-11.5,5.2-11.5,11.5c0,6.3,5.2,11.5,11.5,11.5h86.6v4
				h-86.6c-6.3,0-11.5,5.2-11.5,11.5c0,6.3,5.2,11.5,11.5,11.5h86.6v11.1H1062.4z M1172.4,519.5v9h-86.6c-2.5,0-4.5-2-4.5-4.5
				c0-2.5,2-4.5,4.5-4.5H1172.4z M1081.2,577.9c0-2.5,2-4.5,4.5-4.5h86.6v9h-86.6C1083.3,582.4,1081.2,580.4,1081.2,577.9z
				 M1172.4,546.5v9h-86.6c-2.5,0-4.5-2-4.5-4.5c0-2.5,2-4.5,4.5-4.5H1172.4z M1347.2,563.9h-167.8V559v-11.8h167.8V563.9z
				 M1396.4,540.1h-45.7h-171.3V532v-16v-14.6h143.3h20.1h53.7V540.1z"/>
			<polygon fill="#363E44" points="1179.4,547.1 1179.4,559 1179.4,563.9 1347.2,563.9 1347.2,547.1 			"/>
			<path fill="#4E575E" d="M1172.4,589.4h-86.6c-6.3,0-11.5-5.2-11.5-11.5c0-6.3,5.2-11.5,11.5-11.5h86.6v-4h-86.6
				c-6.3,0-11.5-5.2-11.5-11.5c0-6.3,5.2-11.5,11.5-11.5h86.6v-4h-86.6c-6.3,0-11.5-5.2-11.5-11.5c0-6.3,5.2-11.5,11.5-11.5h86.6
				v-11.1h-110v99.2h110V589.4z"/>
			<path fill="#4E575E" d="M1081.2,524c0,2.5,2,4.5,4.5,4.5h86.6v-9h-86.6C1083.3,519.5,1081.2,521.5,1081.2,524z"/>
			<path fill="#4E575E" d="M1081.2,551c0,2.5,2,4.5,4.5,4.5h86.6v-9h-86.6C1083.3,546.5,1081.2,548.5,1081.2,551z"/>
			<path fill="#4E575E" d="M1172.4,573.4h-86.6c-2.5,0-4.5,2-4.5,4.5c0,2.5,2,4.5,4.5,4.5h86.6V573.4z"/>
			<path fill="#363E44" d="M1155.8,701c-19.6,13.4-93.7,14.6-96.8,14.6c0,0,0,0,0,0c-1.5,0-2.8-0.9-3.3-2.3l-17.3-47.7h-42v1.7
				c1.4-0.2,3.1-0.4,4.9-0.4c7.8,0,14.5,3.1,19.3,8.9c3.4,4.1,6.1,10.5,9.2,18c6.4,15.5,13.7,33.2,29.4,33.8c1.1,0,2.4,0.1,3.7,0.1
				c29.9,0,89.8-10.1,98.7-18.2c7.2-6.5,22.2-46.5,31.5-74.5h-1.5h-12.3C1178.1,647.2,1173.3,689,1155.8,701z"/>
			<rect x="1326.2" y="473.5" fill="#4E575E" width="13.1" height="20.9"/>
			<path fill="#4E575E" d="M1003.8,566.5c2.2,0.7,4.9,0.5,7.8-0.5c8.8-3,16-11.4,18.8-22.1c1.1-4.1,1.9-10.2-0.2-15.6
				c-1.9-4.8-6.1-8.2-10.4-8.6c-2.4-0.2-4.8,0.4-7.5,1c-2.6,0.6-5.2,1.3-8.1,1.3c-1.3,0-2.6-0.1-3.8-0.4c-5.8-1.4-9.6-5.9-12.9-9.9
				c-0.7-0.9-1.5-1.7-2.2-2.6c-7.4-8.3-18.7-13.2-30.2-13.2c-3.1,0-6.2,0.4-9.1,1.1c-3.8,0.9-7.7,3.2-7.8,6c-0.1,2.1,2,4.1,4.1,5.1
				c2.1,1,4.6,1.4,7.2,1.9c0.9,0.2,1.8,0.3,2.6,0.5c18.4,3.7,34.1,17.5,40.1,35.3c0.5,1.5,1,3,1.4,4.5
				C996,557.6,998.1,564.6,1003.8,566.5z"/>
			<path fill="#4E575E" d="M934.5,807.5c0-4.7-3.8-8.5-8.5-8.5s-8.5,3.8-8.5,8.5c0,4.7,3.8,8.5,8.5,8.5S934.5,812.1,934.5,807.5z"/>
			<path fill="#191818" d="M926,792c-8.5,0-15.5,7-15.5,15.5c0,8.5,7,15.5,15.5,15.5s15.5-7,15.5-15.5
				C941.5,798.9,934.5,792,926,792z M917.5,807.5c0-4.7,3.8-8.5,8.5-8.5s8.5,3.8,8.5,8.5c0,4.7-3.8,8.5-8.5,8.5
				S917.5,812.1,917.5,807.5z"/>
		</g>
		<g>
			<path fill="#191818" d="M1993.9,857.5c-3.9,0-7.6-1.5-10.4-4.3l-131.4-131.5c-2.8-2.8-4.3-6.5-4.3-10.4c0-3.5,1.2-6.8,3.5-9.5
				l-31-31c-26.4,20-59,30.9-92.2,30.9c-40.8,0-79.1-15.9-108-44.7c-28.8-28.8-44.7-67.2-44.7-108c0-40.8,15.9-79.2,44.7-108
				c28.8-28.8,67.2-44.7,108-44.7c40.8,0,79.2,15.9,108,44.7c27.1,27.1,42.9,63.1,44.6,101.4c1.5,35.6-9.4,70.6-30.8,98.8l31,31
				c2.7-2.2,6-3.5,9.5-3.5c3.9,0,7.6,1.5,10.4,4.3l131.4,131.5c2.8,2.8,4.3,6.5,4.3,10.4c0,3.9-1.5,7.6-4.3,10.4l-27.9,27.9
				C2001.6,855.9,1997.9,857.5,1993.9,857.5z M1643.2,601c4.1,6.6,8.9,12.7,14.5,18.3c18.8,18.8,43.8,29.1,70.4,29.1
				s51.6-10.4,70.4-29.1c6.3-6.3,11.7-13.3,16-20.9c-29.2,22.7-59.2,34.7-87.3,34.7C1700.1,633.1,1671.3,622.1,1643.2,601z
				 M1727.1,462.9c27.4,0,56.7,11.4,85.2,33.1c-3.9-6.2-8.6-12.1-13.9-17.4c-18.8-18.8-43.8-29.1-70.4-29.1
				c-26.6,0-51.6,10.4-70.4,29.1c-4.6,4.6-8.6,9.5-12.2,14.7C1672.8,473.3,1700.8,462.9,1727.1,462.9z"/>
			<path fill="#191818" d="M1728,697.7c33.6,0,66.3-11.4,92.5-32.2l36.3,36.3l-1.9,1.9c-2,2-3.1,4.7-3.1,7.6s1.1,5.6,3.1,7.6
				l131.5,131.5c2,2,4.7,3.1,7.6,3.1c2.9,0,5.6-1.1,7.6-3.1l27.9-27.9c4.2-4.2,4.2-11,0-15.2l-131.5-131.5c-2-2-4.7-3.1-7.6-3.1
				s-5.6,1.1-7.6,3.1l-1.9,1.9l-36.3-36.3c22.3-28,33.7-63,32.1-99c-1.6-37.3-17-72.3-43.4-98.7c-28.1-28.1-65.4-43.6-105.2-43.6
				c-39.7,0-77.1,15.5-105.2,43.6c-58,58-58,152.4,0,210.4C1650.9,682.2,1688.3,697.7,1728,697.7z M1728,445.4
				c27.6,0,53.6,10.8,73.2,30.3c10.3,10.3,18.1,22.3,23.3,35.5c-1.7-1.6-3.5-3.1-5.4-4.7c-30.7-25.9-62.5-39.6-92-39.6
				c-29.5,0-61.3,13.7-92,39.6c-0.9,0.7-1.7,1.4-2.5,2.2c5.1-12.2,12.6-23.3,22.2-32.9C1674.4,456.2,1700.4,445.4,1728,445.4z
				 M1728,652.4c-27.6,0-53.6-10.8-73.2-30.3c-10.4-10.4-18.3-22.5-23.4-35.8c1.2,1.1,2.4,2.1,3.7,3.2c30.7,25.9,62.5,39.6,92,39.6
				c29.5,0,61.3-13.7,92-39.6c2.2-1.9,4.4-3.8,6.4-5.6c-5.1,14.2-13.3,27.3-24.3,38.3C1781.6,641.7,1755.7,652.4,1728,652.4z"/>
			<path fill="#FFFFFF" d="M1727.1,473.9c-40.3,0-76.5,26.9-99.2,48.7c-0.4,1.5-0.7,3-1.1,4.5c4.9-5.1,10.8-10.8,17.6-16.5
				c27.6-23.3,56.2-35.6,82.7-35.6s55.1,12.3,82.7,35.6c7.9,6.7,14.6,13.3,19.9,19c-0.3-1.5-0.6-3.1-1-4.6
				C1806.2,502.7,1768.8,473.9,1727.1,473.9z"/>
			<path fill="#FFFFFF" d="M1809.8,585.5c-27.6,23.3-56.2,35.6-82.7,35.6s-55.1-12.3-82.7-35.6c-7-5.9-13.1-11.8-18.1-17
				c0.3,1.5,0.6,2.9,0.9,4.4c22.7,21.9,59.2,49.3,99.8,49.3c42.1,0,79.7-29.3,102.2-51.6c0.3-1.5,0.6-3,0.9-4.5
				C1824.7,571.8,1817.9,578.6,1809.8,585.5z"/>
			<path fill="#FFFFFF" d="M1727.1,481.9c-45.5,0-85.2,38.4-102.2,57.6c-0.3,3.1-0.4,6.3-0.4,9.4c0,2.5,0.1,4.9,0.3,7.4
				c16.9,19.1,56.7,57.8,102.3,57.8c47.6,0,88.8-42,104.3-60c0.1-1.7,0.1-3.4,0.1-5.1c0-2.4-0.1-4.8-0.2-7.1
				C1815.6,523.7,1774.5,481.9,1727.1,481.9z M1727.1,608.3c-33.3,0-60.3-27-60.3-60.3c0-33.3,27-60.3,60.3-60.3
				c33.3,0,60.3,27,60.3,60.3C1787.4,581.3,1760.4,608.3,1727.1,608.3z"/>
			<path fill="#191818" d="M1727.1,487.7c-33.3,0-60.3,27-60.3,60.3c0,33.3,27,60.3,60.3,60.3c33.3,0,60.3-27,60.3-60.3
				C1787.4,514.7,1760.4,487.7,1727.1,487.7z M1705.3,537.1c-6,0-10.9-4.9-10.9-10.9c0-6,4.9-10.9,10.9-10.9s10.9,4.9,10.9,10.9
				C1716.2,532.3,1711.3,537.1,1705.3,537.1z"/>
			<circle fill="#FFFFFF" cx="1705.3" cy="526.3" r="10.9"/>
			<path fill="#363E44" d="M1627.8,649.2c26.8,26.8,62.4,41.5,100.2,41.5c33,0,65.2-11.6,90.5-32.6c0.7-0.5,1.4-0.8,2.2-0.8
				c0.9,0,1.8,0.3,2.5,1l38.6,38.6l14.1-14.1l-38.6-38.6c-1.3-1.3-1.4-3.3-0.2-4.7c47.1-56.6,43.3-138.6-8.9-190.7
				c-26.8-26.8-62.4-41.5-100.2-41.5c-37.9,0-73.5,14.7-100.2,41.5C1572.5,504,1572.5,593.9,1627.8,649.2z M1728,438.4
				c29.5,0,57.3,11.5,78.1,32.4c20.9,20.9,32.4,48.6,32.4,78.1c0,29.5-11.5,57.3-32.4,78.1c-20.9,20.9-48.6,32.4-78.1,32.4
				c-29.5,0-57.3-11.5-78.1-32.4c-20.9-20.9-32.4-48.6-32.4-78.1c0-29.5,11.5-57.3,32.4-78.1C1670.7,449.9,1698.5,438.4,1728,438.4z
				"/>
			<path fill="#191818" d="M1728,697.7c33.6,0,66.3-11.4,92.5-32.2l36.3,36.3l-1.9,1.9c-2,2-3.1,4.7-3.1,7.6s1.1,5.6,3.1,7.6
				l131.5,131.5c2,2,4.7,3.1,7.6,3.1c2.9,0,5.6-1.1,7.6-3.1l27.9-27.9c4.2-4.2,4.2-11,0-15.2l-131.5-131.5c-2-2-4.7-3.1-7.6-3.1
				s-5.6,1.1-7.6,3.1l-1.9,1.9l-36.3-36.3c22.3-28,33.7-63,32.1-99c-1.6-37.3-17-72.3-43.4-98.7c-28.1-28.1-65.4-43.6-105.2-43.6
				c-39.7,0-77.1,15.5-105.2,43.6c-58,58-58,152.4,0,210.4C1650.9,682.2,1688.3,697.7,1728,697.7z M1828.2,448.7
				c52.1,52.1,55.9,134.1,8.9,190.7c-1.2,1.4-1.1,3.4,0.2,4.7l38.6,38.6l-14.1,14.1l-38.6-38.6c-0.7-0.7-1.6-1-2.5-1
				c-0.8,0-1.6,0.3-2.2,0.8c-25.3,21-57.5,32.6-90.5,32.6c-37.9,0-73.4-14.7-100.2-41.5c-55.3-55.3-55.3-145.2,0-200.5
				c26.8-26.8,62.4-41.5,100.2-41.5C1765.9,407.2,1801.5,421.9,1828.2,448.7z M1893,680.8l131.5,131.5c1.5,1.5,1.5,3.8,0,5.3
				l-27.9,27.9c-1.4,1.4-3.9,1.4-5.3,0l-131.5-131.5c-0.7-0.7-1.1-1.6-1.1-2.6c0-1,0.4-1.9,1.1-2.6l27.9-27.9
				c0.7-0.7,1.6-1.1,2.6-1.1S1892.3,680.1,1893,680.8z"/>
			<path fill="#191818" d="M1617.5,548.9c0,29.5,11.5,57.3,32.4,78.1c20.9,20.9,48.6,32.4,78.1,32.4c29.5,0,57.3-11.5,78.1-32.4
				c20.9-20.9,32.4-48.6,32.4-78.1c0-29.5-11.5-57.3-32.4-78.1c-20.9-20.9-48.6-32.4-78.1-32.4c-29.5,0-57.3,11.5-78.1,32.4
				C1629,491.7,1617.5,519.4,1617.5,548.9z M1728,445.4c27.6,0,53.6,10.8,73.2,30.3c10.3,10.3,18.1,22.3,23.3,35.5
				c-1.7-1.6-3.5-3.1-5.4-4.7c-30.7-25.9-62.5-39.6-92-39.6c-29.5,0-61.3,13.7-92,39.6c-0.9,0.7-1.7,1.4-2.5,2.2
				c5.1-12.2,12.6-23.3,22.2-32.9C1674.4,456.2,1700.4,445.4,1728,445.4z M1831.5,548.9c0,1.7,0,3.4-0.1,5.1
				c-15.5,18.1-56.7,60-104.3,60c-45.6,0-85.5-38.7-102.3-57.8c-0.2-2.5-0.3-4.9-0.3-7.4c0-3.2,0.1-6.3,0.4-9.4
				c16.9-19.2,56.6-57.6,102.2-57.6c47.4,0,88.6,41.8,104.2,59.9C1831.4,544.2,1831.5,546.5,1831.5,548.9z M1728,652.4
				c-27.6,0-53.6-10.8-73.2-30.3c-10.4-10.4-18.3-22.5-23.4-35.8c1.2,1.1,2.4,2.1,3.7,3.2c30.7,25.9,62.5,39.6,92,39.6
				c29.5,0,61.3-13.7,92-39.6c2.2-1.9,4.4-3.8,6.4-5.6c-5.1,14.2-13.3,27.3-24.3,38.3C1781.6,641.7,1755.7,652.4,1728,652.4z
				 M1829.3,570.6c-22.5,22.3-60.1,51.6-102.2,51.6c-40.6,0-77.1-27.4-99.8-49.3c-0.3-1.5-0.7-2.9-0.9-4.4c5,5.2,11.1,11.1,18.1,17
				c27.6,23.3,56.2,35.6,82.7,35.6s55.1-12.3,82.7-35.6c8.1-6.8,15-13.6,20.4-19.4C1829.9,567.6,1829.6,569.1,1829.3,570.6z
				 M1809.8,510.5c-27.6-23.3-56.2-35.6-82.7-35.6s-55.1,12.3-82.7,35.6c-6.8,5.7-12.7,11.4-17.6,16.5c0.3-1.5,0.7-3,1.1-4.5
				c22.8-21.8,59-48.7,99.2-48.7c41.7,0,79.1,28.9,101.7,51.1c0.4,1.5,0.7,3,1,4.6C1824.4,523.8,1817.6,517.2,1809.8,510.5z"/>
			<path fill="#1C2328" d="M1859.8,708.6c-0.7,0.7-1.1,1.6-1.1,2.6c0,1,0.4,1.9,1.1,2.6l131.5,131.5c1.4,1.4,3.9,1.4,5.3,0
				l27.9-27.9c1.5-1.5,1.5-3.8,0-5.3L1893,680.8c-0.7-0.7-1.6-1.1-2.6-1.1s-1.9,0.4-2.6,1.1L1859.8,708.6z"/>
		</g>
		<g>
			<path fill="#191818" d="M347.3,1673.6c-16.6,0-30.2-13.5-30.2-30.2v-413.8c0-16.6,13.5-30.2,30.2-30.2h22.3v-114.7
				c0-11.6,9.5-21.1,21.1-21.1c11.6,0,21.1,9.5,21.1,21.1v114.7h178.1c16.6,0,30.2,13.5,30.2,30.2v17.1
				c11.9,3.3,20.5,14.4,20.5,26.9v44.4c0,12.6-8.6,23.6-20.5,27v10.8c11.9,3.3,20.5,14.4,20.5,26.9v44.4c0,12.6-8.6,23.6-20.5,26.9
				v189.2c0,16.6-13.5,30.2-30.2,30.2H347.3z"/>
			<path fill="#191818" d="M616.1,1249.9v-20.4c0-14.4-11.7-26.2-26.2-26.2H407.7v-118.7c0-9.4-7.7-17.1-17.1-17.1
				c-9.4,0-17.1,7.7-17.1,17.1v118.7h-26.3c-14.4,0-26.2,11.7-26.2,26.2v413.8c0,14.4,11.7,26.2,26.2,26.2h242.6
				c14.4,0,26.2-11.7,26.2-26.2V1451c11.6-1.7,20.5-11.7,20.5-23.7v-44.4c0-12-8.9-22-20.5-23.7v-17.3c11.6-1.7,20.5-11.7,20.5-23.7
				v-44.4C636.5,1261.6,627.6,1251.6,616.1,1249.9z"/>
			<path fill="#4F585F" d="M609.1,1643.4v-195.7v-85.4v-23.8v-85.4v-23.6c0-10.6-8.6-19.2-19.2-19.2H404.2h-27.2h-29.8
				c-10.6,0-19.2,8.6-19.2,19.2v413.8c0,10.6,8.6,19.2,19.2,19.2h242.6C600.4,1662.6,609.1,1654,609.1,1643.4z M515.8,1625.2h-90.5
				c-1.9,0-3.5-1.6-3.5-3.5c0-1.9,1.6-3.5,3.5-3.5h90.5c1.9,0,3.5,1.6,3.5,3.5C519.3,1623.6,517.7,1625.2,515.8,1625.2z
				 M515.8,1592.7h-90.5c-1.9,0-3.5-1.6-3.5-3.5c0-1.9,1.6-3.5,3.5-3.5h90.5c1.9,0,3.5,1.6,3.5,3.5
				C519.3,1591.1,517.7,1592.7,515.8,1592.7z M515.8,1560.2h-90.5c-1.9,0-3.5-1.6-3.5-3.5s1.6-3.5,3.5-3.5h90.5
				c1.9,0,3.5,1.6,3.5,3.5S517.7,1560.2,515.8,1560.2z M515.8,1527.7h-90.5c-1.9,0-3.5-1.6-3.5-3.5c0-1.9,1.6-3.5,3.5-3.5h90.5
				c1.9,0,3.5,1.6,3.5,3.5C519.3,1526.1,517.7,1527.7,515.8,1527.7z M468.6,1432.6c-57.1,0-103.5-46.4-103.5-103.5
				c0-57.1,46.4-103.5,103.5-103.5c57.1,0,103.5,46.4,103.5,103.5C572.1,1386.2,525.6,1432.6,468.6,1432.6z"/>
			<path fill="#363E44" d="M565.1,1329.1c0-53.2-43.3-96.5-96.5-96.5c-53.2,0-96.5,43.3-96.5,96.5c0,53.2,43.3,96.5,96.5,96.5
				C521.8,1425.6,565.1,1382.3,565.1,1329.1z M389.2,1329.1c0-43.8,35.6-79.4,79.4-79.4c43.8,0,79.4,35.6,79.4,79.4
				s-35.6,79.4-79.4,79.4C424.8,1408.5,389.2,1372.9,389.2,1329.1z"/>
			<path fill="#191818" d="M572.1,1329.1c0-57.1-46.4-103.5-103.5-103.5c-57.1,0-103.5,46.4-103.5,103.5
				c0,57.1,46.4,103.5,103.5,103.5C525.6,1432.6,572.1,1386.2,572.1,1329.1z M468.6,1425.6c-53.2,0-96.5-43.3-96.5-96.5
				c0-53.2,43.3-96.5,96.5-96.5c53.2,0,96.5,43.3,96.5,96.5C565.1,1382.3,521.8,1425.6,468.6,1425.6z"/>
			<path fill="#4F585F" d="M508.2,1389.7H429c11.4,7.5,25,11.8,39.6,11.8C483.2,1401.5,496.8,1397.2,508.2,1389.7z"/>
			<path fill="#4F585F" d="M539.4,1314.2c-1.2-5.5-3-10.8-5.3-15.8H403c-2.4,5-4.2,10.3-5.3,15.8H539.4z"/>
			<path fill="#4F585F" d="M530.3,1291.4c-3.6-5.9-8-11.2-13.1-15.8h-97.3c-5.1,4.6-9.5,10-13.1,15.8H530.3z"/>
			<path fill="#4F585F" d="M429,1268.5h79.2c-11.4-7.5-25-11.8-39.6-11.8C454,1256.7,440.4,1261,429,1268.5z"/>
			<path fill="#4F585F" d="M534.1,1359.9c2.4-5,4.2-10.3,5.3-15.8H397.7c1.2,5.5,3,10.8,5.3,15.8H534.1z"/>
			<path fill="#4F585F" d="M530.3,1366.9H406.8c3.6,5.9,8,11.2,13.1,15.8h97.3C522.3,1378.1,526.7,1372.7,530.3,1366.9z"/>
			<path fill="#4F585F" d="M541,1329.1c0-2.7-0.2-5.3-0.4-7.9h-144c-0.3,2.6-0.4,5.2-0.4,7.9c0,2.7,0.2,5.3,0.4,7.9h144
				C540.8,1334.4,541,1331.8,541,1329.1z"/>
			<path fill="#191818" d="M548,1329.1c0-43.8-35.6-79.4-79.4-79.4c-43.8,0-79.4,35.6-79.4,79.4s35.6,79.4,79.4,79.4
				C512.4,1408.5,548,1372.9,548,1329.1z M406.8,1366.9h123.5c-3.6,5.9-8,11.2-13.1,15.8h-97.3
				C414.8,1378.1,410.4,1372.7,406.8,1366.9z M396.2,1329.1c0-2.7,0.2-5.3,0.4-7.9h144c0.3,2.6,0.4,5.2,0.4,7.9
				c0,2.7-0.2,5.3-0.4,7.9h-144C396.3,1334.4,396.2,1331.8,396.2,1329.1z M419.9,1275.5h97.3c5.1,4.6,9.5,10,13.1,15.8H406.8
				C410.4,1285.5,414.8,1280.1,419.9,1275.5z M429,1268.5c11.4-7.5,25-11.8,39.6-11.8c14.6,0,28.2,4.4,39.6,11.8H429z M534.1,1298.4
				c2.4,5,4.2,10.3,5.3,15.8H397.7c1.2-5.5,3-10.8,5.3-15.8H534.1z M539.4,1344c-1.2,5.5-3,10.8-5.3,15.8H403
				c-2.4-5-4.2-10.3-5.3-15.8H539.4z M508.2,1389.7c-11.4,7.5-25,11.8-39.6,11.8c-14.6,0-28.2-4.4-39.6-11.8H508.2z"/>
			<path fill="#4F585F" d="M400.7,1084.7c0-5.6-4.5-10.1-10.1-10.1c-5.6,0-10.1,4.5-10.1,10.1v118.7h20.2V1084.7z"/>
			<path fill="#363E44" d="M616.1,1257.1v77.7c7.7-1.6,13.5-8.5,13.5-16.6v-44.4C629.5,1265.5,623.7,1258.7,616.1,1257.1z"/>
			<path fill="#191818" d="M616.1,1249.9v-20.4c0-14.4-11.7-26.2-26.2-26.2H407.7v-118.7c0-9.4-7.7-17.1-17.1-17.1
				c-9.4,0-17.1,7.7-17.1,17.1v118.7h-26.3c-14.4,0-26.2,11.7-26.2,26.2v413.8c0,14.4,11.7,26.2,26.2,26.2h242.6
				c14.4,0,26.2-11.7,26.2-26.2V1451c11.6-1.7,20.5-11.7,20.5-23.7v-44.4c0-12-8.9-22-20.5-23.7v-17.3c11.6-1.7,20.5-11.7,20.5-23.7
				v-44.4C636.5,1261.6,627.6,1251.6,616.1,1249.9z M629.5,1318.1c0,8.2-5.8,15-13.5,16.6v-77.7c7.7,1.6,13.5,8.5,13.5,16.6V1318.1z
				 M629.5,1427.2c0,8.2-5.8,15-13.5,16.6v-77.7c7.7,1.6,13.5,8.5,13.5,16.6V1427.2z M347.3,1662.6c-10.6,0-19.2-8.6-19.2-19.2
				v-413.8c0-10.6,8.6-19.2,19.2-19.2h29.8h27.2h185.6c10.6,0,19.2,8.6,19.2,19.2v23.6v85.4v23.8v85.4v195.7
				c0,10.6-8.6,19.2-19.2,19.2H347.3z M380.6,1084.7c0-5.6,4.5-10.1,10.1-10.1c5.6,0,10.1,4.5,10.1,10.1v118.7h-20.2V1084.7z"/>
			<path fill="#363E44" d="M616.1,1366.2v77.7c7.7-1.6,13.5-8.5,13.5-16.6v-44.4C629.5,1374.6,623.7,1367.8,616.1,1366.2z"/>
			<path fill="#191818" d="M515.8,1520.7h-90.5c-1.9,0-3.5,1.6-3.5,3.5c0,1.9,1.6,3.5,3.5,3.5h90.5c1.9,0,3.5-1.6,3.5-3.5
				C519.3,1522.2,517.7,1520.7,515.8,1520.7z"/>
			<path fill="#191818" d="M515.8,1553.2h-90.5c-1.9,0-3.5,1.6-3.5,3.5s1.6,3.5,3.5,3.5h90.5c1.9,0,3.5-1.6,3.5-3.5
				S517.7,1553.2,515.8,1553.2z"/>
			<path fill="#191818" d="M515.8,1585.7h-90.5c-1.9,0-3.5,1.6-3.5,3.5c0,1.9,1.6,3.5,3.5,3.5h90.5c1.9,0,3.5-1.6,3.5-3.5
				C519.3,1587.2,517.7,1585.7,515.8,1585.7z"/>
			<path fill="#191818" d="M515.8,1618.2h-90.5c-1.9,0-3.5,1.6-3.5,3.5c0,1.9,1.6,3.5,3.5,3.5h90.5c1.9,0,3.5-1.6,3.5-3.5
				C519.3,1619.7,517.7,1618.2,515.8,1618.2z"/>
		</g>
		<g>
			<path fill="#191818" d="M2068.7,1672.7c-13.6,0-29.4-5.9-42.2-15.7c-22.2-17-37.8-42-51.6-64.1c-3.1-5-6.5-13-10.5-22.2
				c-9.6,7.2-21.3,11.1-33.4,11.1c-14.9,0-28.9-5.8-39.5-16.3L1647,1321l-97.9-42.3c-2.3-1-3.9-3-4.4-5.5c-0.5-2.4,0.3-5,2.1-6.7
				l33.4-33.4c-2.9-22.1,4.6-44.4,20.4-60.2c13.6-13.6,31.6-21,50.8-21c3.1,0,6.3,0.2,9.4,0.6l33.3-33.3c1.4-1.4,3.3-2.2,5.3-2.2
				c0.5,0,0.9,0,1.4,0.1c2.4,0.5,4.5,2.1,5.5,4.4l6.7,15.4c0.9,1.1,1.5,2.4,1.7,3.9l34,78.6l83.6,83.6c2.3-1.1,4.8-1.7,7.5-1.7
				c4.6,0,8.9,1.8,12.2,5l30.1,30.1c3.3,3.3,5,7.6,5,12.2c0,2.6-0.6,5.1-1.7,7.4l107.8,107.8c10.5,10.5,16.3,24.6,16.3,39.5
				c0,7.6-1.5,15.1-4.5,22c25.2,7.2,43.2,14.5,57.9,23.7c32.2,19.9,46.5,47.5,43.9,84.4c-1.8,24.8-14.8,34-25.3,37.4
				C2077.5,1672.1,2073.2,1672.7,2068.7,1672.7L2068.7,1672.7z M1988.9,1551.8c2.7,5.3,5.1,11.1,7.3,16.3c2.2,5.3,4.6,10.8,6.1,13.3
				c8.2,13.2,17.5,28.1,29.9,37.6c6.1,4.7,13.4,7.5,19.5,7.5c1.6,0,3.1-0.2,4.4-0.6c1.7-0.5,6.8-2.2,7.6-13
				C2066.8,1571.7,2027.7,1561.2,1988.9,1551.8z"/>
			<path fill="#191818" d="M2060.8,1552.5c-17.9-11.1-39.7-18.5-61.5-24.5c4-7.4,6.1-15.8,6.1-24.5c0-13.8-5.4-26.8-15.2-36.6
				l-110-110c1.8-2.3,2.7-5.1,2.7-8.1c0-3.5-1.4-6.9-3.9-9.4l-30.1-30.1c-2.5-2.5-5.8-3.9-9.4-3.9c-3,0-5.8,1-8.1,2.7l-8.8-8.8
				c0,0,0,0,0,0l-66.6-66.6h0h0l-10.9-10.9l-34.5-80c0-0.9-0.3-1.8-1-2.5c0,0-0.1,0-0.1-0.1l-7-16.1c-0.5-1.1-1.4-1.8-2.6-2
				c-1.1-0.2-2.3,0.1-3.1,1l-34.8,34.8c-3.5-0.6-7.2-0.9-10.8-0.9c-18.1,0-35.1,7.1-47.9,19.9c-16,16-22.3,38-19,58.7l-34.8,34.8
				c-0.8,0.8-1.2,2-1,3.1c0.2,1.1,1,2.1,2,2.6l98.6,42.6l245,245c9.8,9.8,22.8,15.2,36.6,15.2c13.1,0,25.4-4.8,35-13.6
				c0.5,1.2,1,2.4,1.5,3.6c4.1,9.6,7.6,18,10.7,23c13.6,21.8,29,46.5,50.6,63c12.2,9.3,27.1,14.9,39.8,14.9c0,0,0,0,0,0
				c4.1,0,8-0.6,11.5-1.7c9.4-3,20.9-11.3,22.6-33.9C2105.3,1597.9,2091.6,1571.5,2060.8,1552.5z M2057.4,1629.7
				c-1.7,0.5-3.6,0.8-5.6,0.8c-6.9,0-15.1-3.1-21.9-8.3c-13-9.9-22.5-25.2-30.9-38.7c-1.8-2.8-4-8.2-6.4-13.9
				c-3.1-7.4-6.5-15.3-10.2-21.7l1.5-1.5c1.1,0.3,2.2,0.5,3.3,0.8c39.4,9.6,84,20.4,80.7,65.9
				C2067.2,1622.1,2063.7,1627.7,2057.4,1629.7z"/>
			<path fill="#FFDE17" d="M1651.3,1163c-16.2,0-31.5,6.3-43,17.8c-13,13-18.8,30.5-17.6,47.5l65.1-65.1
				C1654.3,1163,1652.8,1163,1651.3,1163z"/>
			<path fill="#1C2328" d="M2057.1,1558.4c-17.7-11-39.8-18.3-61.7-24.2c-1.5,2.1-3.2,4.1-5.1,5.9l-0.6,0.6
				c19.3,4.7,41.1,10.1,57.7,20.4c20.1,12.4,29,29.7,27.4,52.6c-1.2,15.9-10.1,21-15.3,22.7c-2.4,0.8-5,1.1-7.7,1.1
				c-8.4,0-18.2-3.6-26.1-9.8c-14-10.7-24.3-27.2-32.6-40.5c-2-3.3-4.3-8.6-6.9-14.8c-2.5-5.9-5.6-13.3-8.9-19.3l-5.9,5.9
				c0.9,2.1,1.8,4.1,2.6,6.1c3.8,9,7.4,17.5,10.2,22c13.3,21.3,28.3,45.4,48.9,61.2c11,8.4,24.3,13.4,35.5,13.4c0,0,0,0,0,0
				c3.4,0,6.5-0.5,9.4-1.4c10.5-3.3,16.6-12.9,17.7-27.7C2098.1,1600.3,2085.5,1576,2057.1,1558.4z"/>
			<path fill="#191818" d="M2060.8,1552.5c-17.9-11.1-39.7-18.5-61.5-24.5c4-7.4,6.1-15.8,6.1-24.5c0-13.8-5.4-26.8-15.2-36.6
				l-110-110c1.8-2.3,2.7-5.1,2.7-8.1c0-3.5-1.4-6.9-3.9-9.4l-30.1-30.1c-2.5-2.5-5.8-3.9-9.4-3.9c-3,0-5.8,1-8.1,2.7l-8.8-8.8
				c0,0,0,0,0,0l-66.6-66.6h0h0l-10.9-10.9l-34.5-80c0-0.9-0.3-1.8-1-2.5c0,0-0.1,0-0.1-0.1l-7-16.1c-0.5-1.1-1.4-1.8-2.6-2
				c-1.1-0.2-2.3,0.1-3.1,1l-34.8,34.8c-3.5-0.6-7.2-0.9-10.8-0.9c-18.1,0-35.1,7.1-47.9,19.9c-16,16-22.3,38-19,58.7l-34.8,34.8
				c-0.8,0.8-1.2,2-1,3.1c0.2,1.1,1,2.1,2,2.6l98.6,42.6l245,245c9.8,9.8,22.8,15.2,36.6,15.2c13.1,0,25.4-4.8,35-13.6
				c0.5,1.2,1,2.4,1.5,3.6c4.1,9.6,7.6,18,10.7,23c13.6,21.8,29,46.5,50.6,63c12.2,9.3,27.1,14.9,39.8,14.9c0,0,0,0,0,0
				c4.1,0,8-0.6,11.5-1.7c9.4-3,20.9-11.3,22.6-33.9C2105.3,1597.9,2091.6,1571.5,2060.8,1552.5z M2095.8,1632.7
				c-1.1,14.8-7.2,24.4-17.7,27.7c-2.8,0.9-6,1.4-9.4,1.4c0,0,0,0,0,0c-11.2,0-24.5-5-35.5-13.4c-20.6-15.8-35.7-39.9-48.9-61.2
				c-2.8-4.5-6.4-13-10.2-22c-0.9-2-1.7-4.1-2.6-6.1l5.9-5.9c3.3,6,6.4,13.4,8.9,19.3c2.6,6.2,4.9,11.6,6.9,14.8
				c8.3,13.3,18.6,29.8,32.6,40.5c8,6.1,17.8,9.8,26.1,9.8c2.8,0,5.4-0.4,7.7-1.1c5.2-1.7,14.1-6.8,15.3-22.7
				c1.7-23-7.3-40.2-27.4-52.6c-16.6-10.3-38.4-15.7-57.7-20.4l0.6-0.6c1.9-1.9,3.6-3.8,5.1-5.9c22,5.9,44,13.3,61.7,24.2
				C2085.5,1576,2098.1,1600.3,2095.8,1632.7z M1899.3,1557.8l-18.8-18.8l86-86l18.8,18.8c8.5,8.5,13.1,19.7,13.1,31.7
				c0,12-4.7,23.2-13.1,31.7l-22.6,22.6c-8.5,8.5-19.7,13.1-31.7,13.1C1919,1570.9,1907.8,1566.2,1899.3,1557.8z M1608.3,1180.8
				c11.5-11.5,26.8-17.8,43-17.8c1.5,0,3,0.1,4.5,0.2l-65.1,65.1C1589.5,1211.2,1595.3,1193.8,1608.3,1180.8z M1698.2,1130.7
				l4.6,10.6l-134,134l-10.6-4.6L1698.2,1130.7z M1876,1348.8c0,1.7-0.6,3.2-1.8,4.4l-10,10l-38.9-38.9l10-10
				c1.2-1.2,2.7-1.8,4.4-1.8c1.7,0,3.2,0.6,4.4,1.8l30.1,30.1C1875.3,1345.5,1876,1347.1,1876,1348.8z M1667.7,1326.1l86-86
				l61.7,61.7l-16.8,16.8c-0.7,0.7-1,1.5-1,2.5c0,0.9,0.4,1.8,1,2.5l78.7,78.7c0.7,0.7,1.6,1,2.5,1s1.8-0.3,2.5-1l16.8-16.8
				l62.6,62.6l-86,86L1667.7,1326.1z M1656.3,1314.7l86-86l6.5,6.5l-86,86L1656.3,1314.7z M1650.5,1310.6l-74.8-32.3l130.1-130.1
				l32.3,74.8L1650.5,1310.6z M1817.9,1321.7c-0.7,0.7-1,1.5-1,2.5c0,0.9,0.4,1.8,1,2.5l43.9,43.9c0.7,0.7,1.5,1,2.5,1
				s1.8-0.4,2.5-1l8.7-8.7l18.6,18.6l-14.4,14.4l-73.7-73.7l14.4-14.4l6.3,6.3L1817.9,1321.7z M1983.9,1546.4
				c1.1,0.3,2.2,0.5,3.3,0.8c39.4,9.6,84,20.4,80.7,65.9c-0.7,9-4.2,14.6-10.4,16.5c-1.7,0.5-3.6,0.8-5.6,0.8
				c-6.9,0-15.1-3.1-21.9-8.3c-13-9.9-22.5-25.2-30.9-38.7c-1.8-2.8-4-8.2-6.4-13.9c-3.1-7.4-6.5-15.3-10.2-21.7L1983.9,1546.4z"/>
			<path fill="#363E44" d="M1985.3,1535.1c8.5-8.5,13.1-19.7,13.1-31.7c0-12-4.7-23.2-13.1-31.7l-18.8-18.8l-86,86l18.8,18.8
				c8.5,8.5,19.7,13.1,31.7,13.1c12,0,23.2-4.7,31.7-13.1L1985.3,1535.1z"/>
			<path fill="#363E44" d="M1899,1385.4l-16.8,16.8c-0.7,0.7-1.6,1-2.5,1s-1.8-0.3-2.5-1l-78.7-78.7c-0.7-0.7-1-1.5-1-2.5
				c0-0.9,0.4-1.8,1-2.5l16.8-16.8l-61.7-61.7l-86,86l207.9,207.9l86-86L1899,1385.4z"/>
			
				<rect x="1641.7" y="1270.4" transform="matrix(0.7071 -0.7071 0.7071 0.7071 -402.8776 1577.2571)" fill="#363E44" width="121.6" height="9.1"/>
			<polygon fill="#4F585F" points="1575.7,1278.2 1650.5,1310.6 1738.1,1223 1705.8,1148.1 			"/>
			<polygon fill="#4F585F" points="1558.2,1270.7 1568.8,1275.2 1702.8,1141.2 1698.2,1130.7 			"/>
			<path fill="#363E44" d="M1805.9,1321.1l73.7,73.7l14.4-14.4l-18.6-18.6l-8.7,8.7c-0.7,0.7-1.5,1-2.5,1s-1.8-0.4-2.5-1l-43.9-43.9
				c-0.7-0.7-1-1.5-1-2.5c0-0.9,0.4-1.8,1-2.5l8.7-8.7l-6.3-6.3L1805.9,1321.1z"/>
			<path fill="#4F585F" d="M1839.7,1312.4c-1.7,0-3.2,0.6-4.4,1.8l-10,10l38.9,38.9l10-10c1.2-1.2,1.8-2.7,1.8-4.4
				c0-1.7-0.6-3.2-1.8-4.4l-30.1-30.1C1842.9,1313.1,1841.3,1312.4,1839.7,1312.4z"/>
		</g>
		<g>
			<path fill="#191818" d="M1302.1,1529.3c-48.7,0-93.4-26.3-117.3-68.8h-67.5c-23.8,42.5-68.5,68.8-117.3,68.8
				c-74.1,0-134.4-60.3-134.4-134.4s60.3-134.4,134.4-134.4c39.7,0,76.7,17.2,102.4,47.4c5.6-8.2,14.6-13.7,24.5-14.9h-1
				c-4.1,0-7.5-3.4-7.5-7.5v-19c0-4.1,3.4-7.5,7.5-7.5h49.5c4.1,0,7.5,3.4,7.5,7.5v19c0,4.1-3.4,7.5-7.5,7.5h-0.3
				c9.9,1.2,18.9,6.6,24.5,14.9c25.6-30.2,62.6-47.4,102.4-47.4c74.1,0,134.4,60.3,134.4,134.4S1376.2,1529.3,1302.1,1529.3z
				 M1169.3,1415.9c-0.3-1.8-0.5-3.6-0.7-5.4h-35c-0.2,1.8-0.5,3.6-0.7,5.4H1169.3z"/>
			<path fill="#191818" d="M1302.1,1264.5c-41.8,0-79.1,19.8-103,50.5c-4.8-10.7-15.5-18.2-28-18.2h-7.4v-7.8h11.8
				c1.9,0,3.5-1.6,3.5-3.5v-19c0-1.9-1.6-3.5-3.5-3.5H1126c-1.9,0-3.5,1.6-3.5,3.5v19c0,1.9,1.6,3.5,3.5,3.5h11.8v7.8h-6.7
				c-12.5,0-23.2,7.5-28,18.2c-23.9-30.7-61.1-50.5-103-50.5c-71.9,0-130.4,58.5-130.4,130.4c0,71.9,58.5,130.4,130.4,130.4
				c49.6,0,92.9-27.9,114.9-68.8h72.2c22,40.9,65.3,68.8,114.9,68.8c71.9,0,130.4-58.5,130.4-130.4
				C1432.4,1323,1373.9,1264.5,1302.1,1264.5z M1130,1406.5h42.2c0.4,4.5,1,9,1.9,13.4h-46C1128.9,1415.5,1129.5,1411,1130,1406.5z
				 M1174.1,1369.9h-46c-0.4-1.8-0.7-3.6-1.2-5.4h48.4C1174.8,1366.3,1174.4,1368.1,1174.1,1369.9z"/>
			<path fill="#363E44" d="M1175.7,1426.9h-49.2c-2,7.8-4.7,15.4-8,22.6h65.2C1180.3,1442.3,1177.6,1434.7,1175.7,1426.9z"/>
			<path fill="#363E44" d="M1129.2,1376.9c0.8,5.9,1.2,11.9,1.2,18c0,1.5,0,3.1-0.1,4.6h41.4c-0.1-1.5-0.1-3.1-0.1-4.6
				c0-6.1,0.4-12.1,1.2-18H1129.2z"/>
			<path fill="#363E44" d="M1125,1357.5h52.2c3.8-12.8,9.6-24.8,16.9-35.6c-2.5-10.4-11.8-18.1-23-18.1h-10.9h-19H1131
				c-11.1,0-20.4,7.7-23,18.1C1115.4,1332.7,1121.2,1344.7,1125,1357.5z"/>
			<path fill="#363E44" d="M1123.5,1394.9c0-68-55.3-123.4-123.4-123.4c-68,0-123.4,55.3-123.4,123.4s55.3,123.4,123.4,123.4
				C1068.1,1518.3,1123.5,1462.9,1123.5,1394.9z M1000.1,1492.3c-53.7,0-97.4-43.7-97.4-97.4s43.7-97.4,97.4-97.4
				c53.7,0,97.4,43.7,97.4,97.4S1053.8,1492.3,1000.1,1492.3z"/>
			<path fill="#54C9F0" d="M1068.8,1453.5c-22.7,14.1-45.6,21.5-67.2,21.5c-23.7,0-48.8-8.8-73.6-25.7c16.5,21.8,42.7,36,72.1,36
				C1027.6,1485.3,1052.2,1472.9,1068.8,1453.5z"/>
			<path fill="#54C9F0" d="M1001.6,1312.7c20.3,0,41.7,6.5,63,19c-16.4-16.8-39.3-27.2-64.5-27.2c-27.4,0-52,12.3-68.6,31.6
				C955.2,1320.7,979.1,1312.7,1001.6,1312.7z"/>
			<path fill="#363E44" d="M1425.4,1394.9c0-68-55.3-123.4-123.4-123.4c-68,0-123.4,55.3-123.4,123.4s55.3,123.4,123.4,123.4
				C1370.1,1518.3,1425.4,1462.9,1425.4,1394.9z M1302.1,1492.3c-53.7,0-97.4-43.7-97.4-97.4s43.7-97.4,97.4-97.4
				c53.7,0,97.4,43.7,97.4,97.4S1355.7,1492.3,1302.1,1492.3z"/>
			<path fill="#191818" d="M1432.4,1394.9c0-71.9-58.5-130.4-130.4-130.4c-41.8,0-79.1,19.8-103,50.5c-4.8-10.7-15.5-18.2-28-18.2
				h-7.4v-7.8h11.8c1.9,0,3.5-1.6,3.5-3.5v-19c0-1.9-1.6-3.5-3.5-3.5H1126c-1.9,0-3.5,1.6-3.5,3.5v19c0,1.9,1.6,3.5,3.5,3.5h11.8
				v7.8h-6.7c-12.5,0-23.2,7.5-28,18.2c-23.9-30.7-61.1-50.5-103-50.5c-71.9,0-130.4,58.5-130.4,130.4
				c0,71.9,58.5,130.4,130.4,130.4c49.6,0,92.9-27.9,114.9-68.8h72.2c22,40.9,65.3,68.8,114.9,68.8
				C1373.9,1525.3,1432.4,1466.8,1432.4,1394.9z M1302.1,1518.3c-68,0-123.4-55.3-123.4-123.4s55.3-123.4,123.4-123.4
				c68,0,123.4,55.3,123.4,123.4S1370.1,1518.3,1302.1,1518.3z M1000.1,1518.3c-68,0-123.4-55.3-123.4-123.4s55.3-123.4,123.4-123.4
				c68,0,123.4,55.3,123.4,123.4S1068.1,1518.3,1000.1,1518.3z M1131,1303.8h10.2h19h10.9c11.1,0,20.5,7.7,23,18.1
				c-7.3,10.8-13.1,22.8-16.9,35.6H1125c-3.8-12.8-9.6-24.8-16.9-35.6C1110.6,1311.5,1119.9,1303.8,1131,1303.8z M1144.8,1289.1h12
				v7.8h-12V1289.1z M1129.5,1270.1h42.5v12h-42.5V1270.1z M1171.8,1399.5h-41.4c0.1-1.5,0.1-3.1,0.1-4.6c0-6.1-0.4-12.1-1.2-18
				h43.7c-0.8,5.9-1.2,11.9-1.2,18C1171.7,1396.4,1171.7,1398,1171.8,1399.5z M1172.2,1406.5c0.4,4.5,1,9,1.9,13.4h-46
				c0.9-4.4,1.5-8.9,1.9-13.4H1172.2z M1128.1,1369.9c-0.4-1.8-0.7-3.6-1.2-5.4h48.4c-0.4,1.8-0.8,3.6-1.2,5.4H1128.1z
				 M1126.5,1426.9h49.2c2,7.8,4.7,15.4,8,22.6h-65.2C1121.8,1442.3,1124.5,1434.7,1126.5,1426.9z"/>
			<path fill="#54C9F0" d="M1302.1,1485.3c27.5,0,52.1-12.3,68.7-31.8c-22.7,14.1-45.6,21.5-67.2,21.5c-23.7,0-48.8-8.8-73.6-25.7
				C1246.5,1471.1,1272.6,1485.3,1302.1,1485.3z"/>
			<path fill="#54C9F0" d="M1302.1,1304.5c-27.4,0-52,12.3-68.6,31.6c23.7-15.3,47.6-23.4,70.1-23.4c20.3,0,41.7,6.5,63,19
				C1350.2,1314.9,1327.3,1304.5,1302.1,1304.5z"/>
			<rect x="1144.8" y="1289.1" fill="#363E44" width="12" height="7.8"/>
			<rect x="1129.5" y="1270.1" fill="#363E44" width="42.5" height="12"/>
			<path fill="#FFFFFF" d="M1001.6,1468c29.5,0,56.8-14.4,78.2-30.7c0.7-1.3,1.3-2.6,2-3.9c-26.8,22-54.5,33.6-80.2,33.6
				c-26.5,0-55.1-12.3-82.7-35.6c-0.8-0.7-1.6-1.4-2.5-2.1c0.6,1.4,1.2,2.7,1.8,4.1C940.4,1451.2,969.8,1468,1001.6,1468z"/>
			<path fill="#FFFFFF" d="M919,1356.4c27.6-23.3,56.2-35.6,82.7-35.6c25.2,0,52.2,11.1,78.5,32.2c-0.7-1.4-1.5-2.7-2.2-4
				c-21.1-15.7-47.7-29.2-76.3-29.2c-31.1,0-59.7,16-81.6,33.4c-0.7,1.4-1.4,2.8-2.1,4.2C918.3,1357,918.6,1356.7,919,1356.4z"/>
			<path fill="#FFFFFF" d="M912.8,1371.5c-2,7.5-3.1,15.3-3.1,23.4c0,7.1,0.8,14.1,2.4,20.7c20.3,19.7,53,44.4,89.5,44.4
				c34.1,0,65-21.6,85.4-40.5c2.2-7.8,3.4-16.1,3.4-24.6c0-9.5-1.5-18.7-4.2-27.4c-20.5-18.7-50.9-39.7-84.6-39.7
				C965.5,1327.8,933.1,1351.9,912.8,1371.5z M1061.9,1393.9c0,33.3-27,60.3-60.3,60.3c-33.3,0-60.3-27-60.3-60.3
				c0-33.3,27-60.3,60.3-60.3C1034.9,1333.6,1061.9,1360.6,1061.9,1393.9z"/>
			<path fill="#191818" d="M941.3,1393.9c0,33.3,27,60.3,60.3,60.3c33.3,0,60.3-27,60.3-60.3c0-33.3-27-60.3-60.3-60.3
				C968.3,1333.6,941.3,1360.6,941.3,1393.9z M979.9,1383c-6,0-10.9-4.9-10.9-10.9c0-6,4.9-10.9,10.9-10.9c6,0,10.9,4.9,10.9,10.9
				C990.8,1378.1,985.9,1383,979.9,1383z"/>
			<circle fill="#FFFFFF" cx="979.9" cy="1372.1" r="10.9"/>
			<path fill="#191818" d="M1097.5,1394.9c0-53.7-43.7-97.4-97.4-97.4c-53.7,0-97.4,43.7-97.4,97.4s43.7,97.4,97.4,97.4
				C1053.8,1492.3,1097.5,1448.6,1097.5,1394.9z M928,1449.3c24.9,16.9,50,25.7,73.6,25.7c21.6,0,44.5-7.4,67.2-21.5
				c-16.6,19.4-41.2,31.8-68.7,31.8C970.7,1485.3,944.5,1471.1,928,1449.3z M1000.1,1304.5c25.3,0,48.1,10.4,64.5,27.2
				c-21.4-12.5-42.7-19-63-19c-22.5,0-46.4,8-70.1,23.4C948.1,1316.8,972.7,1304.5,1000.1,1304.5z M1001.6,1319.7
				c28.6,0,55.1,13.6,76.3,29.2c0.8,1.3,1.5,2.7,2.2,4c-26.3-21.1-53.3-32.2-78.5-32.2c-26.5,0-55.1,12.3-82.7,35.6
				c-0.3,0.3-0.7,0.6-1,0.9c0.7-1.4,1.3-2.8,2.1-4.2C941.9,1335.7,970.6,1319.7,1001.6,1319.7z M1090.5,1394.9
				c0,8.5-1.2,16.8-3.4,24.6c-20.4,18.9-51.3,40.5-85.4,40.5c-36.5,0-69.2-24.7-89.5-44.4c-1.6-6.7-2.4-13.6-2.4-20.7
				c0-8.1,1.1-16,3.1-23.4c20.3-19.5,52.7-43.7,88.8-43.7c33.7,0,64.1,21,84.6,39.7C1089,1376.1,1090.5,1385.3,1090.5,1394.9z
				 M919,1431.3c27.6,23.3,56.2,35.6,82.7,35.6c25.7,0,53.4-11.6,80.2-33.6c-0.6,1.3-1.3,2.6-2,3.9c-21.4,16.3-48.7,30.7-78.2,30.7
				c-31.9,0-61.2-16.9-83.3-34.7c-0.6-1.3-1.2-2.7-1.8-4.1C917.3,1429.9,918.1,1430.6,919,1431.3z"/>
			<path fill="#FFFFFF" d="M1220.9,1356.4c27.6-23.3,56.2-35.6,82.7-35.6c25.2,0,52.2,11.1,78.5,32.2c-0.7-1.4-1.5-2.7-2.2-4
				c-21.1-15.7-47.7-29.2-76.3-29.2c-31.1,0-59.7,16-81.6,33.4c-0.7,1.4-1.4,2.8-2.1,4.2C1220.2,1357,1220.6,1356.7,1220.9,1356.4z"
				/>
			<path fill="#FFFFFF" d="M1303.6,1468c29.5,0,56.8-14.4,78.2-30.7c0.7-1.3,1.3-2.6,2-3.9c-26.8,22-54.5,33.6-80.2,33.6
				c-26.5,0-55.1-12.3-82.7-35.6c-0.8-0.7-1.6-1.4-2.5-2.1c0.6,1.4,1.2,2.7,1.8,4.1C1242.4,1451.2,1271.7,1468,1303.6,1468z"/>
			<path fill="#FFFFFF" d="M1214.1,1415.6c20.3,19.7,53,44.4,89.5,44.4c34.1,0,65-21.6,85.4-40.5c2.2-7.8,3.4-16.1,3.4-24.6
				c0-9.5-1.5-18.7-4.2-27.4c-20.5-18.7-50.9-39.7-84.6-39.7c-36.1,0-68.5,24.1-88.8,43.7c-2,7.5-3.1,15.3-3.1,23.4
				C1211.7,1402,1212.5,1408.9,1214.1,1415.6z M1303.6,1333.6c33.3,0,60.3,27,60.3,60.3c0,33.3-27,60.3-60.3,60.3
				s-60.3-27-60.3-60.3C1243.3,1360.6,1270.3,1333.6,1303.6,1333.6z"/>
			<path fill="#191818" d="M1303.6,1454.2c33.3,0,60.3-27,60.3-60.3c0-33.3-27-60.3-60.3-60.3s-60.3,27-60.3,60.3
				C1243.3,1427.2,1270.3,1454.2,1303.6,1454.2z M1281.8,1361.2c6,0,10.9,4.9,10.9,10.9c0,6-4.9,10.9-10.9,10.9
				c-6,0-10.9-4.9-10.9-10.9C1271,1366.1,1275.8,1361.2,1281.8,1361.2z"/>
			<circle fill="#FFFFFF" cx="1281.8" cy="1372.1" r="10.9"/>
			<path fill="#191818" d="M1399.4,1394.9c0-53.7-43.7-97.4-97.4-97.4c-53.7,0-97.4,43.7-97.4,97.4s43.7,97.4,97.4,97.4
				C1355.7,1492.3,1399.4,1448.6,1399.4,1394.9z M1303.6,1312.7c-22.5,0-46.4,8-70.1,23.4c16.6-19.3,41.2-31.6,68.6-31.6
				c25.3,0,48.1,10.4,64.5,27.2C1345.2,1319.2,1323.9,1312.7,1303.6,1312.7z M1303.6,1319.7c28.6,0,55.1,13.6,76.3,29.2
				c0.8,1.3,1.5,2.7,2.2,4c-26.3-21.1-53.3-32.2-78.5-32.2c-26.5,0-55.1,12.3-82.7,35.6c-0.3,0.3-0.7,0.6-1,0.9
				c0.7-1.4,1.3-2.8,2.1-4.2C1243.9,1335.7,1272.5,1319.7,1303.6,1319.7z M1303.6,1327.8c33.7,0,64.1,21,84.6,39.7
				c2.8,8.6,4.2,17.8,4.2,27.4c0,8.5-1.2,16.8-3.4,24.6c-20.4,18.9-51.3,40.5-85.4,40.5c-36.5,0-69.2-24.7-89.5-44.4
				c-1.6-6.7-2.4-13.6-2.4-20.7c0-8.1,1.1-16,3.1-23.4C1235.1,1351.9,1267.5,1327.8,1303.6,1327.8z M1220.9,1431.3
				c27.6,23.3,56.2,35.6,82.7,35.6c25.7,0,53.4-11.6,80.2-33.6c-0.6,1.3-1.3,2.6-2,3.9c-21.4,16.3-48.7,30.7-78.2,30.7
				c-31.9,0-61.2-16.9-83.3-34.7c-0.6-1.3-1.2-2.7-1.8-4.1C1219.3,1429.9,1220.1,1430.6,1220.9,1431.3z M1303.6,1475
				c21.6,0,44.5-7.4,67.2-21.5c-16.6,19.4-41.2,31.8-68.7,31.8c-29.4,0-55.6-14.1-72.1-36C1254.8,1466.2,1279.9,1475,1303.6,1475z"
				/>
		</g>
	</g>
</g>
</svg>
